<?xml version="1.0" encoding="utf-8"?>
<!-- Generator: Adobe Illustrator 21.1.0, SVG Export Plug-In . SVG Version: 6.00 Build 0)  -->
<svg version="1.1" id="Слой_1" xmlns="http://www.w3.org/2000/svg" xmlns:xlink="http://www.w3.org/1999/xlink" x="0px" y="0px"
	 viewBox="0 0 128 128" style="enable-background:new 0 0 128 128;" xml:space="preserve">
<style type="text/css">
	.st0{fill:#F4F5F5;fill-opacity:0;}
	.st1{clip-path:url(#SVGID_2_);}
	.st2{fill:#FFFFFF;}
	.st3{fill:#E1E3E9;}
	.st4{fill:#F24B45;}
	.st5{fill:#FFB202;}
	.st6{fill:#4CBB41;}
	.st7{fill:#53899F;}
</style>
<g id="Layer_1">
	<rect x="-540" y="-731" class="st0" width="727.9" height="1520"/>
</g>
<g id="Layer_2">
	<g>
		<circle cx="64" cy="64" r="64"/>
		<g>
			<g>
				<defs>
					<circle id="SVGID_1_" cx="64" cy="64" r="64"/>
				</defs>
				<clipPath id="SVGID_2_">
					<use xlink:href="#SVGID_1_"  style="overflow:visible;"/>
				</clipPath>
				<polygon class="st1" points="20.2,96.1 52,128 128,128 128,52.5 108.1,32.6 				"/>
			</g>
		</g>
		<path class="st2" d="M104.9,96.9H23.1c-2.2,0-4-1.8-4-4V35.1c0-2.2,1.8-4,4-4h81.9c2.2,0,4,1.8,4,4v57.9
			C108.9,95.2,107.2,96.9,104.9,96.9z"/>
		<g>
			<path class="st3" d="M108.9,42.1v-7c0-2.2-1.8-4-4-4H23.1c-2.2,0-4,1.8-4,4v7H108.9z"/>
		</g>
		<circle class="st4" cx="25" cy="36.6" r="3"/>
		<circle class="st5" cx="34" cy="36.6" r="3"/>
		<circle class="st6" cx="43" cy="36.6" r="3"/>
		<g>
			<g>
				<defs>
					<path id="SVGID_3_" d="M104.9,96.9H23.1c-2.2,0-4-1.8-4-4V35.1c0-2.2,1.8-4,4-4h81.9c2.2,0,4,1.8,4,4v57.9
						C108.9,95.2,107.2,96.9,104.9,96.9z"/>
				</defs>
				<clipPath id="SVGID_4_">
					<use xlink:href="#SVGID_3_"  style="overflow:visible;"/>
				</clipPath>
			</g>
		</g>
		<g>
			<path class="st7" d="M30.9,66.8l22.6-10.5v5l-17.1,7.5v0.1l17.1,7.5v5L30.9,70.9V66.8z"/>
			<path class="st7" d="M57,85.2L67,51.1h4.8L61.7,85.2H57z"/>
			<path class="st7" d="M97.1,71L74.5,81.4v-5L92,68.9v-0.1l-17.5-7.5v-5l22.6,10.4L97.1,71L97.1,71z"/>
		</g>
	</g>
</g>
</svg>
