<?xml version="1.0" encoding="utf-8"?>
<!-- Generator: Adobe Illustrator 21.1.0, SVG Export Plug-In . SVG Version: 6.00 Build 0)  -->
<svg version="1.1" id="Слой_1" xmlns="http://www.w3.org/2000/svg" xmlns:xlink="http://www.w3.org/1999/xlink" x="0px" y="0px"
	 viewBox="0 0 48 48" style="enable-background:new 0 0 48 48;" xml:space="preserve">
<style type="text/css">
	.st0{fill:#325468;}
	.st1{fill:#6E7B8E;}
	.st2{fill:#ECF0F1;}
	.st3{fill:#FACE53;}
</style>
<title></title>
<circle cx="24" cy="24" r="24"/>
<g id="Education">
	<path class="st0" d="M24.7,35.2L24.7,35.2c-6.4,0-11.5-2.9-11.5-7.4v-7.4h23.1v7.4C36.3,31.6,31.1,35.2,24.7,35.2z"/>
	<path class="st1" d="M40.9,17.3l-14-6.9c-1.5-0.8-3.4-0.8-4.9,0l-14,6.9c-1.2,0.6-1.7,2-1.1,3.2C7,21.1,7.4,21.5,8,21.7l1.9,0.8
		l12.3,5.3c1.4,0.6,3,0.6,4.4,0l12.3-5.3l1.9-0.8c1.2-0.5,1.8-1.9,1.3-3.2C41.8,18,41.4,17.6,40.9,17.3z"/>
	<path class="st2" d="M36.3,38.1c-0.4,0-0.7-0.3-0.7-0.7V24.3l-10.5-5.4c-0.4-0.2-0.5-0.6-0.3-1c0.2-0.4,0.6-0.5,1-0.3L37,23.4v14
		C37,37.8,36.7,38.1,36.3,38.1z"/>
	<ellipse class="st0" cx="24.7" cy="18" rx="3.3" ry="2.2"/>
	<circle class="st3" cx="36.3" cy="38.9" r="3"/>
</g>
</svg>
