<?xml version="1.0" encoding="utf-8"?>
<!-- Generator: Adobe Illustrator 21.1.0, SVG Export Plug-In . SVG Version: 6.00 Build 0)  -->
<svg version="1.1" id="Слой_1" xmlns="http://www.w3.org/2000/svg" xmlns:xlink="http://www.w3.org/1999/xlink" x="0px" y="0px"
	 viewBox="0 0 24 24" style="enable-background:new 0 0 24 24;" xml:space="preserve">
<path d="M12,0C5.4,0,0,5.3,0,12c0,6.6,5.4,12,12,12s12-5.4,12-12C24,5.3,18.6,0,12,0z M3.3,9.3l8.7-3.9l8.1,4.5v5.5h-1.3v-4.8
	l-7.4,3L3.3,9.3z M17.4,16.2c0,1.8-3.9,2.7-6,2.7c-2.1,0-6.1-0.9-6.1-2.7V12l6.1,3.3l6-2.5V16.2z M18.1,18.9
	c0.4-0.7,0.7-1.7,0.7-2.7h1.3c0,1,0.3,1.9,0.7,2.7H18.1z"/>
</svg>
