<?xml version="1.0" encoding="utf-8"?>
<!-- Generator: Adobe Illustrator 21.1.0, SVG Export Plug-In . SVG Version: 6.00 Build 0)  -->
<svg version="1.1"
	 id="svg4063" xmlns:cc="http://creativecommons.org/ns#" xmlns:dc="http://purl.org/dc/elements/1.1/" xmlns:inkscape="http://www.inkscape.org/namespaces/inkscape" xmlns:rdf="http://www.w3.org/1999/02/22-rdf-syntax-ns#" xmlns:sodipodi="http://sodipodi.sourceforge.net/DTD/sodipodi-0.dtd" xmlns:svg="http://www.w3.org/2000/svg"
	 xmlns="http://www.w3.org/2000/svg" xmlns:xlink="http://www.w3.org/1999/xlink" x="0px" y="0px" viewBox="0 0 32 32"
	 style="enable-background:new 0 0 32 32;" xml:space="preserve">
<style type="text/css">
	.st0{fill:#E6E7E8;}
	.st1{fill:#0084FF;}
	.st2{fill:#10BAFC;}
</style>
<circle cx="15.8" cy="16" r="15.5"/>
<g id="layer1" transform="translate(0,-1020.3621)">
	<g id="g5641">
		<path id="path5173" class="st0" d="M12.5,1029.9H26c0.8,0,1.5,0.7,1.5,1.5v14c0,0.8-0.7,1.5-1.5,1.5h-9.5L12.5,1029.9z"/>
		<path id="path5175" class="st1" d="M19.4,1043.9l-2.9,2.9l-0.7-3L19.4,1043.9z"/>
		<path id="path3791" d="M12.5,1029.4c-0.3,0-0.5,0.2-0.5,0.5c0,0,0,0.1,0,0.1l4,17c0.1,0.2,0.3,0.4,0.5,0.4H26c1.1,0,2-0.9,2-2v-14
			c0-1.1-0.9-2-2-2H12.5z M13.1,1030.4H26c0.6,0,1,0.4,1,1v14c0,0.6-0.4,1-1,1h-9.1L13.1,1030.4z"/>
		<path id="path3795" d="M19.5,1043.4c-0.1,0-0.3,0.1-0.3,0.2l-3,3c-0.2,0.2-0.2,0.5,0,0.7c0.2,0.2,0.5,0.2,0.7,0c0,0,0,0,0,0l3-3
			c0.2-0.2,0.2-0.5,0-0.7C19.8,1043.4,19.6,1043.4,19.5,1043.4z"/>
		<path id="path3799" d="M17.5,1033.4c-0.3,0-0.5,0.2-0.5,0.5c0,0.3,0.2,0.5,0.5,0.5c0,0,0,0,0,0h7c0.3,0,0.5-0.2,0.5-0.5
			c0-0.3-0.2-0.5-0.5-0.5c0,0,0,0,0,0H17.5z"/>
		<path id="path3801" d="M19.5,1033.4c-0.3,0-0.5,0.2-0.5,0.5c0,0,0,0,0,0.1c0.2,3.1,2,5.9,4.7,7.4c0.2,0.1,0.5,0,0.7-0.2
			s0-0.5-0.2-0.7c-2.4-1.3-4-3.8-4.2-6.5C20,1033.6,19.8,1033.4,19.5,1033.4z"/>
		<path id="path3803" d="M22.5,1033.4c-0.3,0-0.5,0.2-0.5,0.5c-0.2,2.5-1.5,4.7-3.5,6.1c-0.2,0.1-0.3,0.5-0.2,0.7
			c0.1,0.2,0.5,0.3,0.7,0.2c0,0,0,0,0,0c2.3-1.6,3.8-4.1,4-6.9C23,1033.7,22.8,1033.4,22.5,1033.4
			C22.5,1033.4,22.5,1033.4,22.5,1033.4z"/>
		<path id="path3805" d="M21,1031.4c-0.3,0-0.5,0.2-0.5,0.5l0,0v2c0,0.3,0.2,0.5,0.5,0.5c0.3,0,0.5-0.2,0.5-0.5c0,0,0,0,0,0v-2
			C21.5,1031.6,21.3,1031.4,21,1031.4C21,1031.4,21,1031.4,21,1031.4z"/>
		<path id="path5171" class="st2" d="M19.5,1043.9H6c-0.8,0-1.5-0.7-1.5-1.5v-14c0-0.8,0.7-1.5,1.5-1.5h9.5L19.5,1043.9z"/>
		<path id="path3793" d="M6,1026.4c-1.1,0-2,0.9-2,2v14c0,1.1,0.9,2,2,2h13.5c0.3,0,0.5-0.2,0.5-0.5c0,0,0-0.1,0-0.1l-4-17
			c-0.1-0.2-0.3-0.4-0.5-0.4H6z M6,1027.4h9.1l3.8,16H6c-0.6,0-1-0.4-1-1v-14C5,1027.8,5.4,1027.4,6,1027.4z"/>
		<path id="path3797" d="M9.6,1029.4c-0.6,0.1-1.3,0.4-1.7,0.9c-1,1-1.2,2.4-0.5,3.6c0.7,1.2,2.1,1.7,3.4,1.4
			c1.3-0.4,2.2-1.5,2.2-2.9c0-0.3-0.2-0.5-0.5-0.5H10c-0.3,0-0.5,0.2-0.5,0.5s0.2,0.5,0.5,0.5c0,0,0,0,0,0h1.8
			c-0.2,0.7-0.6,1.2-1.3,1.4c-0.9,0.2-1.8-0.1-2.3-0.9c-0.5-0.8-0.3-1.8,0.3-2.4c0.6-0.6,1.6-0.8,2.4-0.3c0.2,0.1,0.5,0.1,0.7-0.2
			c0.1-0.2,0.1-0.5-0.2-0.7c0,0,0,0,0,0C10.9,1029.4,10.2,1029.3,9.6,1029.4z"/>
	</g>
</g>
</svg>
