<svg version="1.1" id="Layer_1" xmlns="http://www.w3.org/2000/svg" x="0" y="0" viewBox="0 0 250 250" xml:space="preserve"><style>.st2{fill:#46e6f2}.st3,.st6{fill:none;stroke:#231f20;stroke-width:3;stroke-linecap:round;stroke-linejoin:round;stroke-miterlimit:10}.st6{stroke:#fff}</style><circle cx="125.3" cy="124.7" r="124.7"/><path id="XMLID_19_" d="M180.8 90.2c0-33.3-28.8-59.9-62.9-56-25.5 2.9-46.2 23.3-49.5 48.7-2.1 15.8 2.6 30.5 11.4 41.8 10 12.9 15.1 29.2 15.1 45.7v2.3h58.9v-2.3c0-17.1 6.1-33.3 16.1-46.9 6.9-9.3 10.9-20.7 10.9-33.3z" fill="#fcc12d"/><path id="XMLID_15_" d="M182.3 87.2c0-34.5-30-62.1-65.5-58.1-26.6 3-48.1 24.2-51.6 50.5-2.1 16.4 2.8 31.6 11.9 43.3 10.4 13.4 15.7 30.3 15.7 47.4v2.4h61.4v-2.4c0-17.7 6.4-34.5 16.8-48.6 7.2-9.6 11.3-21.7 11.3-34.5z" fill="none" stroke="#fff" stroke-width="10" stroke-linecap="round" stroke-linejoin="round" stroke-miterlimit="10"/><path id="XMLID_18_" class="st2" d="M152.1 187.9H96.5c-4.1 0-7.6-3.3-7.6-7.6 0-4.1 3.3-7.6 7.6-7.6h55.6c4.1 0 7.6 3.3 7.6 7.6-.1 4.2-3.5 7.6-7.6 7.6z"/><path id="XMLID_17_" class="st2" d="M147.9 202.8h-47.5c-3.9 0-6.9-3.2-6.9-6.9v-.8c0-3.9 3.2-6.9 6.9-6.9h47.5c3.9 0 6.9 3.2 6.9 6.9v.8c.2 3.7-3 6.9-6.9 6.9z"/><path id="XMLID_16_" class="st2" d="M104.7 206.4v.1c0 6.2 5 11.1 11.1 11.1h16.8c6.2 0 11.1-5 11.1-11.1v-.1c0-1.9-1.7-3.6-3.6-3.6h-31.9c-1.8 0-3.5 1.6-3.5 3.6z"/><path id="XMLID_14_" class="st3" d="M149.2 201.1h-47.5c-3.9 0-6.9-3.2-6.9-6.9v-.8c0-3.9 3.2-6.9 6.9-6.9h47.5c3.9 0 6.9 3.2 6.9 6.9v.8c0 3.9-3.1 6.9-6.9 6.9z"/><path id="XMLID_13_" d="M104.5 204.7v.1c0 6.2 5 11.1 11.1 11.1h16.8c6.2 0 11.1-5 11.1-11.1v-.1c0-1.9-1.7-3.6-3.6-3.6H108c-1.9 0-3.5 1.7-3.5 3.6z" fill="none" stroke="#000" stroke-width="3" stroke-linecap="round" stroke-linejoin="round" stroke-miterlimit="10"/><ellipse id="XMLID_12_" transform="rotate(-50.563 91.416 63.957)" cx="91.4" cy="64" rx="16.2" ry="9.5" fill="#fff"/><path id="XMLID_11_" class="st6" d="M139.2 117.3l-12.5 51.1-12.4-51.1"/><path id="XMLID_10_" class="st6" d="M104.5 111.1c5.6 0 5.6 4.7 11.1 4.7 5.6 0 5.6-4.7 11.1-4.7 5.6 0 5.6 4.7 11.1 4.7 5.6 0 5.6-4.7 11.1-4.7"/><path id="XMLID_2_" class="st3" d="M151.8 186.3H96.2c-4.1 0-7.6-3.3-7.6-7.6 0-4.1 3.3-7.6 7.6-7.6h55.6c4.1 0 7.6 3.3 7.6 7.6s-3.5 7.6-7.6 7.6z"/></svg>