<svg xmlns="http://www.w3.org/2000/svg" viewBox="0 0 780 780"><path d="M522.7 276.3c.1 36.6-14.1 69.7-39 94.6-28.2 28.2-46.4 64.7-51.4 104.5h-12.4l31.5-151.8c2.5-13.3-5.8-26.5-19.1-29.9-13.3-2.5-26.5 5.8-29.9 19.1l-14.1 68.1-15.7-68.9c-3.3-13.3-16.6-21.5-29.9-18.3-13.3 3.3-21.5 16.6-18.3 29.9l34.8 151h-11.6c-5-39-23.3-75.5-51.4-104.5-12.4-12.5-22.2-27-28.8-42.8-6.6-15.9-10.1-33.1-10.1-50.9 0-35.6 14.1-68.8 39-93.7 24.9-24.9 58.1-39 93.7-39s68.8 14.1 93.7 39c24.9 24.8 39 58 39 93.6z"/><path d="M390 0C174.6 0 0 174.6 0 390s174.6 390 390 390 390-174.6 390-390S605.4 0 390 0zm49.8 650.5H336.1c-14.1 0-24.9-10.8-24.9-24.9 0-14.1 10.8-24.9 24.9-24.9h103.7c14.1 0 24.9 10.8 24.9 24.9 0 14.1-10.9 24.9-24.9 24.9zm20.7-62.2h-141c-14.1 0-24.9-10.8-24.9-24.9 0-14.1 10.8-24.9 24.9-24.9h141.1c14.1 0 24.9 10.8 24.9 24.9-.1 13.3-10.9 24.9-25 24.9zm58.9-182.6c-25.8 25.7-39 59-39.8 93.8 0 6.6-2.5 12.4-7.5 17.4-4.1 5-10.8 7.5-17.4 7.5H324.4c-14.1 0-24.9-10.8-24.9-24.9 0-17.8-3.5-35-10.2-50.9-6.6-15.9-16.4-30.4-28.8-42.8-34.1-34.8-53.1-80.5-53.1-129.4 0-48.9 18.3-94.6 53.1-129.4 34.8-34.1 80.5-53.1 129.4-53.1 48.9 0 94.6 18.2 129.4 53 34.1 34.8 53.1 80.5 53.1 129.4.1 48.9-18.1 94.6-53 129.4z"/></svg>