<svg xmlns="http://www.w3.org/2000/svg" xmlns:xlink="http://www.w3.org/1999/xlink" viewBox="0 0 128 128"><path fill="#f4f5f5" fill-opacity="0" d="M-540-731h727.9V789H-540z"/><circle cx="64" cy="64" r="64"/><defs><circle id="a" cx="64" cy="64" r="64"/></defs><clipPath id="b"><use xlink:href="#a" overflow="visible"/></clipPath><path clip-path="url(#b)" d="M20.2 96.1L52 128h76V52.5l-19.9-19.9z"/><path d="M104.9 96.9H23.1c-2.2 0-4-1.8-4-4V35.1c0-2.2 1.8-4 4-4H105c2.2 0 4 1.8 4 4V93c-.1 2.2-1.8 3.9-4.1 3.9z" fill="#fff"/><path d="M108.9 42.1v-7c0-2.2-1.8-4-4-4H23.1c-2.2 0-4 1.8-4 4v7h89.8z" fill="#e1e3e9"/><circle cx="25" cy="36.6" r="3" fill="#f24b45"/><circle cx="34" cy="36.6" r="3" fill="#ffb202"/><circle cx="43" cy="36.6" r="3" fill="#4cbb41"/><path d="M30.9 66.8l22.6-10.5v5l-17.1 7.5v.1l17.1 7.5v5L30.9 70.9v-4.1zM57 85.2l10-34.1h4.8L61.7 85.2H57zM97.1 71L74.5 81.4v-5L92 68.9v-.1l-17.5-7.5v-5l22.6 10.4V71z" fill="#53899f"/></svg>