<svg version="1.1" id="Слой_1" xmlns="http://www.w3.org/2000/svg" x="0" y="0" viewBox="0 0 48 48" xml:space="preserve"><style>.st0{fill:#325468}</style><circle cx="24" cy="24" r="24"/><g id="Education"><path class="st0" d="M24.7 35.2c-6.4 0-11.5-2.9-11.5-7.4v-7.4h23.1v7.4c0 3.8-5.2 7.4-11.6 7.4z"/><path d="M40.9 17.3l-14-6.9c-1.5-.8-3.4-.8-4.9 0L8 17.3c-1.2.6-1.7 2-1.1 3.2.1.6.5 1 1.1 1.2l1.9.8 12.3 5.3c1.4.6 3 .6 4.4 0l12.3-5.3 1.9-.8c1.2-.5 1.8-1.9 1.3-3.2-.3-.5-.7-.9-1.2-1.2z" fill="#6e7b8e"/><path d="M36.3 38.1c-.4 0-.7-.3-.7-.7V24.3l-10.5-5.4c-.4-.2-.5-.6-.3-1s.6-.5 1-.3L37 23.4v14c0 .4-.3.7-.7.7z" fill="#ecf0f1"/><ellipse class="st0" cx="24.7" cy="18" rx="3.3" ry="2.2"/><circle cx="36.3" cy="38.9" r="3" fill="#face53"/></g></svg>