<svg version="1.1" id="Layer_1" xmlns="http://www.w3.org/2000/svg" x="0" y="0" viewBox="0 0 64 64" xml:space="preserve"><style>.st0{opacity:.2}.st1{fill:none}.st2{fill:#231f20}</style><circle cx="32" cy="32" r="32"/><g class="st0"><path class="st1" d="M28 14l-9 40"/><path class="st2" d="M19 55.5h-.3c-.8-.2-1.3-1-1.1-1.8l9-40c.2-.8 1-1.3 1.8-1.1.8.2 1.3 1 1.1 1.8l-9 40c-.2.6-.8 1.1-1.5 1.1z"/></g><g class="st0"><path class="st1" d="M37 14l8 40"/><path class="st2" d="M45 55.5c-.7 0-1.3-.5-1.5-1.2l-8-40c-.2-.8.4-1.6 1.2-1.8.8-.2 1.6.4 1.8 1.2l8 40c.2.8-.4 1.6-1.2 1.8H45z"/></g><g class="st0"><path class="st2" d="M32 55.5c-.8 0-1.5-.7-1.5-1.5V37.4c0-.8.7-1.5 1.5-1.5s1.5.7 1.5 1.5V54c0 .8-.7 1.5-1.5 1.5z"/></g><path d="M28 12l-9 40m18-40l8 40M32 35.4V52" fill="none" stroke="#e0995e" stroke-width="3" stroke-linecap="round" stroke-linejoin="round" stroke-miterlimit="10"/><path d="M49 40.2c0 1-1 1.8-2.1 1.8H17.1c-1.1 0-2.1-.8-2.1-1.8V21.8c0-1 1-1.8 2.1-1.8h29.8c1.2 0 2.1.8 2.1 1.8v18.4z" opacity=".2" fill="#231f20"/><path d="M49 38.2c0 1-1 1.8-2.1 1.8H17.1c-1.1 0-2.1-.8-2.1-1.8V19.8c0-1 1-1.8 2.1-1.8h29.8c1.2 0 2.1.8 2.1 1.8v18.4z" fill="#fff"/><g class="st0"><path class="st2" d="M41 21.5H23c-.8 0-1.5-.7-1.5-1.5s.7-1.5 1.5-1.5h18c.8 0 1.5.7 1.5 1.5s-.7 1.5-1.5 1.5z"/></g><g class="st0"><path class="st2" d="M41 43.5H23c-.8 0-1.5-.7-1.5-1.5s.7-1.5 1.5-1.5h18c.8 0 1.5.7 1.5 1.5s-.7 1.5-1.5 1.5z"/></g><path d="M23 18.5h18m-18 22h18" stroke="#f5cf87" fill="none" stroke-width="3" stroke-linecap="round" stroke-linejoin="round" stroke-miterlimit="10"/><path d="M19.5 36s11-18 11-10 0 10 2 8 7-8 12-9" fill="none" stroke="#c75c5c" stroke-width="3" stroke-linecap="round" stroke-miterlimit="10"/></svg>