<svg height="512" viewBox="0 0 512 512" xmlns="http://www.w3.org/2000/svg"><path d="M260.314 376.135v89.221c-1.445.031-2.877.113-4.322.113-2.078 0-4.141-.098-6.219-.158v-89.176a5.277 5.277 0 015.271-5.271 5.276 5.276 0 015.27 5.271zm-52.678 5.271v78.416c3.479.82 6.988 1.551 10.527 2.191v-91.15c-10.527 0-10.527 10.543-10.527 10.543zm-158.91-91.781c11.762 72.67 60.992 132.803 127.285 160.068v-61.842h-19.878c-79.999.001-58.915-89.349-107.407-98.226zM255.992 46.531C140.018 46.531 46 140.315 46 255.997c0 11.355.934 22.484 2.681 33.341 53.176 2.018 59.847 61.496 107.451 61.496h23.809c4.533-12.461 12.726-23.146 23.282-30.781-22.032-7.018-40.496-22.039-51.986-41.654-20.542 1.701-40.134 3.719-53.146 5.963a3.758 3.758 0 01-.693.074 4.11 4.11 0 01-4.036-3.402 4.09 4.09 0 013.328-4.744c12.635-2.184 31.008-4.135 50.42-5.783a94.339 94.339 0 01-2.801-6.746c-24.216-.098-47.408.617-61.443 3.041a3.454 3.454 0 01-.693.061 4.086 4.086 0 01-4.036-3.389 4.095 4.095 0 013.343-4.742c14.081-2.441 36.625-3.224 60.209-3.194a93.38 93.38 0 01-3.133-23.989c0-19.594 6.069-37.755 16.431-52.739-1.597-6.619-7.033-33.613 4.111-56.173 19.773 1.265 36.761 12.815 45.526 19.977a92.95 92.95 0 0126.806-3.953h47.227c9.322 0 18.328 1.4 26.821 3.953 8.75-7.161 25.752-18.712 45.511-19.977 11.159 22.56 5.707 49.562 4.111 56.173 10.36 14.984 16.43 33.146 16.43 52.739a93.19 93.19 0 01-3.132 23.975c23.598-.016 46.127.768 60.224 3.208a4.095 4.095 0 013.328 4.742c-.331 1.988-2.078 3.389-4.021 3.389a3.52 3.52 0 01-.708-.061c-14.02-2.424-37.227-3.139-61.428-3.041a102.484 102.484 0 01-2.816 6.746c19.412 1.648 37.8 3.6 50.42 5.783 2.229.385 3.72 2.508 3.344 4.744a4.11 4.11 0 01-4.036 3.402 3.61 3.61 0 01-.693-.074c-13.026-2.244-32.619-4.262-53.16-5.963-11.491 19.615-29.939 34.637-51.986 41.654 16.476 11.912 27.213 31.271 27.213 53.16v77.234C411.379 419.529 466 344.148 466 255.997c0-115.682-94.033-209.466-210.008-209.466zM281.88 302.02h-51.745c-32.574 0-58.989-26.416-58.989-58.998 0-32.581 26.415-58.988 58.989-58.988h51.745c32.574 0 58.989 26.407 58.989 58.988 0 32.582-26.415 58.998-58.989 58.998zm-49.968-82.965c0-7.982-6.476-14.457-14.458-14.457-7.981 0-14.458 6.475-14.458 14.457v22.484c0 7.988 6.476 14.457 14.458 14.457s14.458-6.469 14.458-14.457v-22.484zm77.106 0c0-7.982-6.476-14.457-14.457-14.457s-14.457 6.475-14.457 14.457v22.484c0 7.988 6.476 14.457 14.457 14.457s14.457-6.469 14.457-14.457v-22.484zm-17.093 151.808v91.488a207.863 207.863 0 0010.542-2.094v-78.852c0 .001 0-10.542-10.542-10.542z"/></svg>