<svg xmlns="http://www.w3.org/2000/svg" viewBox="0 0 98.6 98.6"><path d="M49.3 98.6c27.2 0 49.3-22.1 49.3-49.3S76.5 0 49.3 0 0 22.1 0 49.3s22.1 49.3 49.3 49.3z" fill="#262626"/><path d="M41.8 78.1v-5.3c-8.4 1.9-10.2-4.2-10.2-4.2-1.4-3.6-3.4-4.6-3.4-4.6-2.8-1.9.2-1.9.2-1.9 3 .2 4.6 3.2 4.6 3.2 2.7 4.8 7.1 3.4 8.8 2.6.3-2 1.1-3.4 1.9-4.2C37 63 30 60.4 30 48.5c0-3.4 1.2-6.2 3.1-8.3-.3-.8-1.4-4 .3-8.2 0 0 2.5-.8 8.3 3.2 2.4-.7 5-1 7.6-1 2.6 0 5.2.4 7.6 1 5.8-4 8.3-3.2 8.3-3.2 1.7 4.3.6 7.4.3 8.2 1.9 2.2 3.1 5 3.1 8.3 0 12-7.1 14.6-13.9 15.4 1.1 1 2.1 2.9 2.1 5.8v8.5c0 .8.5 1.8 2.1 1.5 12-4.1 20.7-15.8 20.7-29.5C79.7 32.9 66.1 19 49.3 19 32.6 19 19 32.9 19 50.1c0 13.7 8.7 25.4 20.8 29.5 1.4.3 2-.7 2-1.5z" fill="#fff"/></svg>