<svg xmlns="http://www.w3.org/2000/svg" viewBox="0 0 1735.4 288.3"><path d="M142.9 166.5l-80.3-137c-6.2-11-12.8-18-19.6-20.8-6.9-2.9-21.6-4.3-44.2-4.3v-4h176.3v4c-18.5 0-31.9 1.2-40.4 3.6S122 14.6 122 20.5c0 3.3 1.3 7.2 4 11.6l70.6 120 49-82.4c6.6-11.6 9.9-21.9 9.9-30.9 0-23-16.4-34.5-49.1-34.5v-4h119.2v4c-19.3 0-35.3 7.6-47.8 22.8C265 48.2 255 64.6 247.9 76.2l-50 84.3v98c0 8.7.6 14.2 1.8 16.6.6 1.2 2.7 2.5 6.2 3.8 3.6 1.4 10.4 2.5 20.5 3.4 10.1.9 23.7 1.3 40.6 1.3v4.5H73.8v-4.5c17 0 30.5-.4 40.6-1.3 10.1-.9 17-2 20.5-3.4 3.6-1.3 5.6-2.6 6.2-3.8 1.2-2.4 1.8-7.9 1.8-16.6v-92zM360 0h10.9v284.3H360zm134.8 96.5v31h-24.4V96.1l-32.9-55h25.8l20.5 34.3 20.5-34.3H528l-33.2 55.4zm91.7 14.2H550l-6.8 16.8h-24.9l38.1-86.4h24.1l38.3 86.4h-25.4l-6.9-16.8zm-7.2-18L568.2 65l-11.1 27.6h22.2zm128.4-51.6v86.4h-20.1l-38.1-46v46h-23.9V41.1h20.1l38.1 46v-46h23.9zm86.5 55l-9.1 9.7v21.6h-24.2V41.1h24.2V77l33.4-35.9h26.9l-35.3 38.3 37.1 48.1h-28.4l-24.6-31.4z"/><path d="M907.5 110.7H871l-6.8 16.8h-24.9l38.1-86.4h24.1l38.3 86.4h-25.4l-6.9-16.8zm-7.1-18L889.3 65l-11.1 27.6h22.2zm119.3 15.4v19.4h-77.4v-15.3l43.6-51.7h-42.4V41.1h74.4v15.3l-43.6 51.7h45.4zm10.7-67h24.4v86.4h-24.4V41.1zm119.8 86.4l-.2-45.8-22.2 37.3h-10.9l-22.1-36v44.5h-22.6V41.1h20.1l30.4 49.9 29.6-49.9h20.1l.2 86.4h-22.4zm39.7-86.4h24.4v86.4h-24.4V41.1zm79.6 63.4h-13.3v23h-24.4V41.1h39.5c23.6 0 38.4 12.2 38.4 32 0 12.7-6.2 22.1-16.9 27.3l18.6 27.1h-26.2l-15.7-23zm.3-44.2h-13.6v25.3h13.6c10.1 0 15.2-4.7 15.2-12.6 0-8-5.1-12.7-15.2-12.7zm48.8 24c0-26.3 20.1-44.9 47.5-44.9 15.9 0 28.8 5.8 37.1 16.3l-15.5 14.1c-5.4-6.5-12.1-10.1-20.4-10.1-14.2 0-24.1 9.9-24.1 24.7 0 14.8 9.9 24.7 24.1 24.7 8.3 0 14.9-3.6 20.4-10.1l15.5 14.1c-8.4 10.5-21.2 16.3-37.1 16.3-27.3-.2-47.5-18.8-47.5-45.1zm177.7-43.2v86.4h-24.4V93.8h-33.3v33.7h-24.4V41.1h24.4v32.5h33.3V41.1h24.4zm17.3 0h24.4v86.4h-24.4V41.1zm37.4 43.2c0-26.3 20.1-44.9 47.5-44.9 15.9 0 28.8 5.8 37.1 16.3l-15.5 14.1c-5.4-6.5-12.1-10.1-20.4-10.1-14.2 0-24.1 9.9-24.1 24.7 0 14.8 9.9 24.7 24.1 24.7 8.3 0 14.9-3.6 20.4-10.1l15.5 14.1c-8.4 10.5-21.2 16.3-37.1 16.3-27.4-.2-47.5-18.8-47.5-45.1zm128.8 11.8l-9.1 9.7v21.6h-24.2V41.1h24.2V77l33.4-35.9h26.9l-35.3 38.3 37.1 48.1h-28.4l-24.6-31.4zM530.6 218.9l-14.5 47.7h-2.9l-22.1-57.9c-1-2.6-2.1-4.2-3.3-4.7-1.2-.6-4.2-.8-9-.8v-1.5H515v1.5c-2.3 0-4.6 0-7 .1-2.4.1-3.5.7-3.5 1.9 0 .6.3 1.6.9 3l14.5 39.8 9.8-32.2-2-7c-.8-2.6-1.5-4.2-2.2-4.8-.7-.6-2.2-.8-4.7-.8h-3.5v-1.5h33.4v1.5c-2.3 0-4.6 0-6.9.1-2.3.1-3.4.7-3.4 1.9 0 .6.2 1.7.8 3.2l11.3 38.6 10.2-29.6c1.2-3.5 1.8-6.2 1.8-8.1 0-4-3.4-6-10.1-6v-1.5h25.1v1.5c-3.8 0-6.8.9-8.9 2.8-2.1 1.9-4.5 6.5-7.1 13.9l-16 46.7h-2.9l-14-47.8zm77.1 15.9c0 10.8 1.3 18.6 3.8 23.4 2.6 4.8 6.4 7.3 11.7 7.3 5.5 0 10.4-1.9 14.6-5.6 5.1-4.5 7.7-10.7 7.7-18.5h1.2c0 7.5-2.4 13.7-7.2 18.5-4.8 4.8-11.2 7.2-19.3 7.2-6.7 0-12.9-2.6-18.4-7.7-6.5-6-9.8-13.9-9.8-23.6 0-10.5 3.2-19.1 9.6-25.7 5.6-5.7 11.9-8.6 19-8.6 6.5 0 11.9 1.9 16.3 5.7 6.3 5.6 9.5 14.8 9.5 27.5h-38.7zm25.9-1.8c0-9.7-.9-17.1-2.6-22.2-1.7-5.1-4.5-7.7-8.4-7.7-5.5 0-9.3 2.4-11.5 7.3-2.2 4.9-3.3 12.4-3.3 22.6h25.8zm38.9 34.1V178c0-2-.3-3.4-.9-4.2-.6-.8-1.2-1.3-1.8-1.5-1.7-.5-5.6-.8-11.6-.8v-1.4l28.5-2.6v53c0-4.6 1.5-8.9 4.4-13 3-4 6.4-6.1 10.5-6.1 9 0 16.1 4.1 21.2 12.2 4 6.4 6 13.2 6 20.3 0 9.1-2.6 16.9-7.8 23.4-5.2 6.5-11.1 9.7-17.8 9.7-6.1 0-10.7-.8-13.6-2.3-3-1.5-6.1-4.6-9.4-9.3l-6.5 11.6h-1.2zm14.1-24.1c0 9.5 1.8 16 5.3 19.5 2.2 2.2 5.4 3.3 9.6 3.3 4.1 0 7.1-2.9 8.9-8.7 1.8-5.8 2.7-13.4 2.7-22.9 0-11.3-1-19.3-3-24-2-4.7-4.9-7.1-8.6-7.1-4 0-7.4 2.4-10.1 7.1-3.2 5.5-4.8 13.2-4.8 23v9.8zm89-13.5v8.3h-30.4v-8.3h30.4zm73.4 15.4c0 4.9-1.2 9.5-3.6 13.8-3.1 5.6-7.4 8.4-13 8.4-7.2 0-13.2-2.8-17.9-8.3-5.1-6-7.7-14.3-7.7-24.8 0-7.2 2.4-14.1 7.1-20.7 5.5-7.8 12.5-11.7 20.9-11.7 4.5 0 8.1 2.5 10.7 7.5 1.8 3.5 3 7.3 3.5 11.5V178c0-2-.3-3.4-.9-4.2-.6-.8-1.5-1.3-2.6-1.5-2.5-.5-8.1-.8-16.9-.8v-1.4l34.5-2.6V257c0 2 .2 3.3.5 3.9.2.3.7.6 1.4.9 2.1.7 6.2 1.1 12.3 1.1v1.4l-28.3 2.9v-22.3zm-.8-11c0-10.1-1.2-17.7-3.5-23-2.3-5.2-5.5-7.9-9.5-7.9-4.8 0-8.2 2.2-10 6.7-1.9 4.5-2.8 12.6-2.8 24.4 0 10.7.6 18.1 1.7 22.4 1.6 6.1 4.9 9.2 9.9 9.2 3.4 0 6.5-2.6 9.2-7.7 3.4-6.1 5-14.1 5-24.1zm59.6.9c0 10.8 1.3 18.6 3.8 23.4 2.6 4.8 6.4 7.3 11.7 7.3 5.5 0 10.4-1.9 14.6-5.6 5.1-4.5 7.7-10.7 7.7-18.5h1.2c0 7.5-2.4 13.7-7.2 18.5-4.8 4.8-11.2 7.2-19.3 7.2-6.7 0-12.9-2.6-18.4-7.7-6.5-6-9.8-13.9-9.8-23.6 0-10.5 3.2-19.1 9.6-25.7 5.6-5.7 11.9-8.6 19-8.6 6.5 0 11.9 1.9 16.3 5.7 6.3 5.6 9.5 14.8 9.5 27.5h-38.7zm25.9-1.8c0-9.7-.9-17.1-2.6-22.2-1.7-5.1-4.5-7.7-8.4-7.7-5.5 0-9.3 2.4-11.5 7.3-2.2 4.9-3.3 12.4-3.3 22.6h25.8zm57.7 33.5l-21.1-57.9c-.9-2.3-1.5-3.7-1.7-4.1-.6-1-2.4-1.5-5.3-1.5h-3.5v-1.5h34.5v1.5c-2.3 0-4.6 0-7 .1-2.4.1-3.5.7-3.5 1.9l.9 3 14.3 38.8 10.1-29.6c1.2-3.5 1.8-6.2 1.8-8.1 0-4-3.4-6-10.1-6v-1.5h25.4v1.5c-3.8 0-6.8.9-8.9 2.8-2.1 1.9-4.5 6.5-7.1 13.9l-16 46.7h-2.8zm63.9-31.7c0 10.8 1.3 18.6 3.8 23.4 2.6 4.8 6.4 7.3 11.7 7.3 5.5 0 10.4-1.9 14.6-5.6 5.1-4.5 7.7-10.7 7.7-18.5h1.2c0 7.5-2.4 13.7-7.2 18.5s-11.2 7.2-19.3 7.2c-6.7 0-12.9-2.6-18.4-7.7-6.5-6-9.8-13.9-9.8-23.6 0-10.5 3.2-19.1 9.6-25.7 5.6-5.7 11.9-8.6 19-8.6 6.5 0 11.9 1.9 16.3 5.7 6.3 5.6 9.5 14.8 9.5 27.5h-38.7zm25.9-1.8c0-9.7-.9-17.1-2.6-22.2-1.7-5.1-4.5-7.7-8.4-7.7-5.5 0-9.3 2.4-11.5 7.3-2.2 4.9-3.3 12.4-3.3 22.6h25.8zm58.1 25.5c0 2 .2 3.3.5 3.9.2.3.7.6 1.4.9 2.1.7 6.5 1.1 13.1 1.1v1.4h-44v-1.4c2.9 0 5.5-.1 7.9-.3 2.4-.2 4.4-.6 6.1-1.2.6-.5.9-2 .9-4.4V178c0-2-.3-3.4-.9-4.2-.6-.8-1.2-1.3-1.8-1.5-1.8-.5-5.8-.8-12-.8v-1.4l28.9-2.6v91zm91.8-24.3c0 9.7-3.4 17.8-10.1 24.2-6.1 5.8-13 8.7-20.6 8.7-7.8 0-14.7-2.7-20.5-8.1-6.8-6.3-10.2-14.6-10.2-24.8 0-9.7 3.4-17.7 10.1-24.1 6.1-5.7 13-8.6 20.6-8.6 7.7 0 14.6 2.7 20.5 8.1 6.8 6.3 10.2 14.5 10.2 24.6zm-15.6 0c0-11.1-1-18.9-2.9-23.5-2.2-5.2-6.3-7.8-12.2-7.8-5.4 0-9.3 2.5-11.6 7.5-2.3 5-3.5 12.9-3.5 23.8 0 11 1 19 3.1 24.1 2.1 5 6 7.5 12 7.5 5.4 0 9.3-2.6 11.6-7.7 2.3-5.1 3.5-13.1 3.5-23.9zm58.2-11.2c.6-5.2 2-9.7 4.2-13.5 3.1-5.3 7.2-7.9 12.3-7.9 7.2 0 13.2 2.8 17.9 8.3 5.1 6 7.7 14.3 7.7 24.8 0 7.2-2.4 14.1-7.1 20.7-5.5 7.8-12.5 11.7-20.9 11.7-4.4 0-7.9-2.3-10.5-7-1.8-3.3-3-7.1-3.6-11.4V290c0 2 .2 3.3.5 3.9.2.3.7.6 1.4.9 2.1.7 6.5 1.1 13.1 1.1v1.4h-44v-1.4c2.9 0 5.5-.1 7.9-.3 2.4-.2 4.4-.6 6.1-1.2.6-.5.9-2 .9-4.4v-78c0-2-.3-3.4-.9-4.2-.6-.8-1.2-1.3-1.8-1.5-1.8-.5-5.8-.8-12-.8v-1.4l28.9-2.6V223zm.9 11.8c0 10.1 1.1 17.7 3.4 23 2.3 5.2 5.4 7.9 9.4 7.9 4.8 0 8.1-2.2 10-6.7 1.8-4.5 2.8-12.6 2.8-24.4 0-10.7-.5-18.1-1.6-22.4-1.6-6.1-4.9-9.2-9.9-9.2-3.4 0-6.4 2.6-9.1 7.7-3.3 6.1-5 14.1-5 24.1zm74 0c0 10.8 1.3 18.6 3.8 23.4 2.6 4.8 6.4 7.3 11.7 7.3 5.5 0 10.4-1.9 14.6-5.6 5.1-4.5 7.7-10.7 7.7-18.5h1.2c0 7.5-2.4 13.7-7.2 18.5s-11.2 7.2-19.3 7.2c-6.7 0-12.9-2.6-18.4-7.7-6.5-6-9.8-13.9-9.8-23.6 0-10.5 3.2-19.1 9.6-25.7 5.6-5.7 11.9-8.6 19-8.6 6.5 0 11.9 1.9 16.3 5.7 6.3 5.6 9.5 14.8 9.5 27.5h-38.7zm25.9-1.8c0-9.7-.9-17.1-2.6-22.2-1.7-5.1-4.5-7.7-8.4-7.7-5.5 0-9.3 2.4-11.5 7.3-2.2 4.9-3.3 12.4-3.3 22.6h25.8zm43.9-21.5c0-2-.2-3.3-.6-3.8-.7-1-1.4-1.6-2-1.8-1.8-.5-5.9-.8-12.3-.8v-1.4l29.1-2.3v19.1c.4-4.1 1.8-8 4.2-11.6 3.3-5 7.5-7.5 12.5-7.5 1.9 0 4 .6 6.2 1.9 2.2 1.3 3.7 2.8 4.4 4.7.8 1.9 1.1 3.6 1.1 5.1 0 4-1.7 6.8-5 8.3-.8.4-1.9.6-3.2.6-2 0-3.8-.7-5.2-2.1-1.4-1.4-2.1-3.5-2.1-6.3 0-1.8.7-3.6 2.1-5.4 1.4-1.8 3-2.5 4.8-2.1-.6-2.1-2.4-3.2-5.4-3.2-2.9 0-5.8 2.1-8.7 6.3-3.8 5.4-5.7 12.4-5.7 21v28.1c0 2 .2 3.3.5 3.9.2.3.7.6 1.4.9 2.1.7 6.5 1.1 13.1 1.1v1.4h-44v-1.4c2.9 0 5.5-.1 7.9-.3 2.4-.2 4.4-.6 6.1-1.2.6-.5.9-2 .9-4.4v-46.8z"/></svg>