<svg xmlns="http://www.w3.org/2000/svg" viewBox="0 0 101 101"><circle cx="50.5" cy="50.6" r="49.7"/><path d="M57.7 12.7c-.3-.1-.5-.2-.8-.3-1.7-.6-3.4-.8-5-1-1.7-.2-3.3-.2-4.9-.2-1 0-2 .1-3 .2s-2.1.5-2.9 1.3c-.2.1-.3.3-.4.5-.5.5-.9 1.3-1 2.1-.3.7-.1 1.7.3 2.5.8 2 1.9 3.9 3.3 5.6.7.8 1.3 1.5 2.2 2.2-2 7.1-3.7 14.3-5.1 21.6-.2.9-.4 1.8-.5 2.7-.1.3.4.1.4.4.5-.1-.2.7-.2.8-.4.1-.1 2.7-1.7.5v.2c-.1.1-.1.1-.1.2 0 .4-.2.3-.3.7l-.3 2.1c0 .2 0 .4-.1.5 0 .1.1.2.2.2.2.3.5.4.7.6.1.1.3.1.4.2-.7 4.7-1 9.5-.8 14.4 1 3.2 2.6 6.4 4.2 9.5.6 2 1.6 3.9 3 5.6 0 .2.1.3.2.4.8 1.7 2.6 1.8 3.9 1 2.8-.7 5.6-3.7 7-5.3 1.3-1.5 2.2-2.8 2.6-4.2.2-.6.3-1.1.4-1.7.2-1.5-.1-3.1-.5-5 .3-.5.4-1.1.3-1.7-1.1-4.9-2.1-9.7-3-14.6-.5-4.1-1-8.3-1.4-12.4 1.1 1.9 2.5 3.8 4.1 5.5 4.5 4.8 10.6 7.7 17.4 7.1.8 0 1.5-.5 1.9-1.2.4-.1.7-.1 1-.3 1.9-.6 1.9-2.5.9-3.8H80c-2 .5-4.1.5-6.1-.1-2.1-.5-4.1-1.5-5.9-2.7-2-1.4-3.8-3.2-5.3-5-1.3-1.5-2.5-3.2-3.6-4.9-2.3-3.5-4.4-7.1-5.5-11v-.2c.5-.4.9-.8 1.2-1.3.1-.1.1-.2.2-.2-.2-.2-.4-.3-.6-.4 1.6-1.3 3.4-2.7 3.9-4.9.1-.5.2-1 .1-1.5.2-.3.3-.7.3-1 .2-1.3 0-2.4-.5-3.3-.3-.2-.4-.3-.5-.4zm-9.1 39c1.4.2 2.3 1.7 1.8 3-.4 1.1-1.6 1.9-2.7 1.8.1 0 .5-.1.6-.1.5-.1 1-.3 1.3-.6l.2-.1c.4-.4.7-.9.9-1.3 0-.3.1-.6 0-.8-.1-.3-.2-.7-.4-.9l-.1-.1c-.3-.4-.7-.6-1.2-.7-.3-.1-.7-.2-1-.2l-6.5-.8c0-.3 0 .3 0 0 2.5.2 4.3.4 7.1.8z" fill="#f15a22"/><path d="M49.1 52.6l.3.4c.2.2.7.5.8.8 0 .2-.5.3-.6.6-.1.5-.2-.5-.6-.1l.3 1c-.4.3-.3.5-.8.6-.1 0 .2-.3.2-.3l-.5.3c-.2 0 .1.8-.1.7-2.8-.7-5.7-1.2-8.6-1.3-.5 0-.9-.2-1.2-.4-.2-.1-.3-.2-.4-.3v-.2c-.1-.5 0-1 .2-1.5.1-.4.3-.8.6-1.1l.2-.2.2-.1c.4-.3.8-.4 1.3-.4h.2c0-.3.8.2.8 0 .6 0 .4.1 1 .2 0 .3 0-.3 0 0l3.5.9c.3.1 1.3.1 1.6.2.2 0 1.3-.1 1.6.2z" fill="#fdb913"/><path d="M58 13.1c-.1-.1-.3-.2-.4-.2-.3-.1-.5-.2-.8-.3-1.7-.6-3.4-.8-5-1-1.7-.2-3.3-.2-4.9-.2-1 0-2 .1-3 .2s-2.1.5-2.9 1.3c-.2.1-.3.3-.4.5-.5.5-.9 1.3-1 2.1-.1.9.1 1.8.5 2.7.8 2 1.9 3.9 3.3 5.6.7.8 1.3 1.5 2.2 2.2-2 7.1-3.7 14.3-5.1 21.6-.2.9-.4 1.8-.5 2.7-.1.3-.1.6-.1.8h-.2c-.4 0-.9.2-1.3.4l-.2.1-.2.2c-.3.3-.5.7-.6 1.1-.1.5-.2 1-.2 1.5v.2c0 .3.2.6.3.9 0 .1.1.2.2.2.2.3.5.4.7.6.1.1.3.1.4.2-.7 4.7-1 9.5-.8 14.4v.7c.1 1.5.3 3 .7 4.4.4 1.3 1 2.5 1.7 3.6 1.9 3.4 3.9 6.7 6.1 9.9.3.5.9.6 1.3.3 2-1.3 3.9-2.7 5.8-4.3 2.2-1.8 4.2-3.7 6.1-5.8.2-.3.5-.6.7-.9.2-.4.5-.7.6-1.2.1-.4.2-.9.1-1.4-.1-.4-.1-.7-.1-1.1-1.6-9.2-3.1-18.3-4.6-27.4l.5.6c4.2 5.1 10.4 8.2 16.9 8.4 1 0 2.1-.1 3-.5.4-.2.8-.4 1.2-.7.7-.6 1.3-1.4 1.7-2.2.4-.8.7-1.6 1-2.5.2-.5-.1-1.1-.6-1.2-.1-.1-.3 0-.5-.1h-.1c-2 .5-4.1.5-6.1-.1-2.1-.5-4.1-1.5-5.9-2.7-2-1.4-3.8-3.2-5.3-5-1.3-1.5-2.5-3.2-3.6-4.9-2.3-3.5-4.4-7.1-5.5-11v-.2c.5-.4.9-.8 1.2-1.3.1-.1.1-.2.2-.2.8-1 1.5-1.9 2.2-2.9.6-.7 1.1-1.5 1.5-2.4.4-.9.7-1.9.8-2.9 0-.4 0-.8-.1-1.2-.1-.5-.3-.8-.6-1.2v-.1c.1 0-.1-.2-.3-.3zM39.3 52.9c.1 0 .2-.1.3-.1h.6c2.5.3 5.1.6 7.6.9.2 0 .4.1.6.1.1 0 .1.1.2.1v.2c0 .1-.1.2-.2.2h-.1c-.2.1-.4.2-.6.2-.3.1-.6.1-.9.1-2 .1-4 .1-6-.2-.3 0-.8 0-1.3-.1-.1-.1-.2-.1-.4-.1 0-.1-.1-.1-.2-.1 0-.1-.1-.1-.1-.2 0-.2 0-.5.1-.7.2 0 .3-.2.4-.3zm33.9-1.5c1.7.5 3.5.6 5.3.4-.1.1-.1.4-.3.6-.3.6-.7 1.1-1.2 1.6-.2.2-.5.3-.7.4-.7.2-1.5.4-2.2.3-5.9-.1-11.7-3.1-15.5-7.7-1.1-1.3-2-2.7-2.7-4.2l-.2-.2c-.6-3.5-1.2-7-1.8-10.4 1 2 2.1 3.9 3.4 5.7 1.2 1.7 2.4 3.4 3.7 5.1 1.7 2 3.6 3.9 5.7 5.4 2 1.4 4.1 2.4 6.5 3zm-14 23.9c0 .2.1.4.1.6 0 .1 0 .2.1.4 0 .2 0 .4-.1.7l-.3.6-.1.1c-.2.2-.3.4-.6.6-1.9 2-3.8 3.9-5.9 5.6-1.5 1.3-3.1 2.5-4.8 3.6-1.9-2.9-3.7-6-5.5-9-.6-1-1.1-2.1-1.6-3.3-.4-1.3-.6-2.6-.7-4-.3-4.9-.1-9.8.7-14.6h.1c2.1.2 4.2.2 6.2.1.4 0 .7 0 1-.1h.2c.5-.1 1-.3 1.3-.6l.2-.1c.4-.4.7-.9.9-1.3 0-.3.1-.6 0-.8-.1-.3-.2-.7-.4-.9l-.1-.1c-.3-.4-.7-.6-1.2-.7-.3-.1-.7-.2-1-.2l-6.2-.9c0-.3.1-.5.1-.8.2-.9.3-1.7.5-2.6 1.4-7.1 3-14 4.8-20.9.2.1.5.2.7.3.9.3 1.9.4 2.8.2.2 0 .4-.1.5-.1 2.9 16.1 5.6 32.2 8.3 48.2zm-6-52c-.3.4-.7.7-1.1 1.1-1.3 1.2-3.2 1.3-4.7.4-1.1-.6-2-1.5-2.8-2.5-1.2-1.5-2.2-3.2-2.9-5.1-.2-.5-.4-1.1-.3-1.7 0-.4.3-.8.5-1l.3-.2c.6-.5 1.3-.7 2-.8.9-.1 1.8-.1 2.7-.1 3.2.1 6.4.2 9.4 1.1.2 0 .4.1.5.2.1.1.2.2.3.2v.1c.1.1.2.3.2.5.1.2.1.5.1.6 0 .7-.2 1.5-.6 2.1-.4.8-.8 1.4-1.3 2.1-.7 1-1.5 2-2.3 3z" fill="#fff"/></svg>