<svg xmlns="http://www.w3.org/2000/svg" viewBox="0 0 32 32"><circle cx="15.8" cy="16" r="15.5"/><path d="M12.5 9.538H26c.8 0 1.5.7 1.5 1.5v14c0 .8-.7 1.5-1.5 1.5h-9.5l-4-17z" fill="#e6e7e8"/><path d="M19.4 23.538l-2.9 2.9-.7-3 3.6.1z" fill="#0084ff"/><path d="M12.5 9.038c-.3 0-.5.2-.5.5v.1l4 17c.1.2.3.4.5.4H26c1.1 0 2-.9 2-2v-14c0-1.1-.9-2-2-2H12.5zm.6 1H26c.6 0 1 .4 1 1v14c0 .6-.4 1-1 1h-9.1l-3.8-16z"/><path d="M19.5 23.038c-.1 0-.3.1-.3.2l-3 3c-.2.2-.2.5 0 .7.2.2.5.2.7 0l3-3c.2-.2.2-.5 0-.7-.1-.2-.3-.2-.4-.2zm-2-10c-.3 0-.5.2-.5.5s.2.5.5.5h7c.3 0 .5-.2.5-.5s-.2-.5-.5-.5h-7z"/><path d="M19.5 13.038c-.3 0-.5.2-.5.5v.1c.2 3.1 2 5.9 4.7 7.4.2.1.5 0 .7-.2s0-.5-.2-.7c-2.4-1.3-4-3.8-4.2-6.5 0-.4-.2-.6-.5-.6z"/><path d="M22.5 13.038c-.3 0-.5.2-.5.5-.2 2.5-1.5 4.7-3.5 6.1-.2.1-.3.5-.2.7.1.2.5.3.7.2 2.3-1.6 3.8-4.1 4-6.9 0-.3-.2-.6-.5-.6zm-1.5-2c-.3 0-.5.2-.5.5v2c0 .3.2.5.5.5s.5-.2.5-.5v-2c0-.3-.2-.5-.5-.5z"/><path d="M19.5 23.538H6c-.8 0-1.5-.7-1.5-1.5v-14c0-.8.7-1.5 1.5-1.5h9.5l4 17z" fill="#10bafc"/><path d="M6 6.038c-1.1 0-2 .9-2 2v14c0 1.1.9 2 2 2h13.5c.3 0 .5-.2.5-.5v-.1l-4-17c-.1-.2-.3-.4-.5-.4H6zm0 1h9.1l3.8 16H6c-.6 0-1-.4-1-1v-14c0-.6.4-1 1-1z"/><path d="M9.6 9.038c-.6.1-1.3.4-1.7.9-1 1-1.2 2.4-.5 3.6.7 1.2 2.1 1.7 3.4 1.4 1.3-.4 2.2-1.5 2.2-2.9 0-.3-.2-.5-.5-.5H10c-.3 0-.5.2-.5.5s.2.5.5.5h1.8c-.2.7-.6 1.2-1.3 1.4-.9.2-1.8-.1-2.3-.9-.5-.8-.3-1.8.3-2.4.6-.6 1.6-.8 2.4-.3.2.1.5.1.7-.2.1-.2.1-.5-.2-.7-.5-.4-1.2-.5-1.8-.4z"/></svg>