<?xml version="1.0" encoding="utf-8"?>
<!-- Generator: Adobe Illustrator 21.1.0, SVG Export Plug-In . SVG Version: 6.00 Build 0)  -->
<svg version="1.1" id="Слой_1" xmlns:sketch="http://www.bohemiancoding.com/sketch/ns"
	 xmlns="http://www.w3.org/2000/svg" xmlns:xlink="http://www.w3.org/1999/xlink" x="0px" y="0px" viewBox="0 0 98.6 98.6"
	 style="enable-background:new 0 0 98.6 98.6;" xml:space="preserve">
<style type="text/css">
	.st0{fill:#262626;}
	.st1{fill:#FFFFFF;}
</style>
<title></title>
<g id="flat">
	<g id="github">
		<path class="st0" d="M49.3,98.6c27.2,0,49.3-22.1,49.3-49.3S76.5,0,49.3,0S0,22.1,0,49.3S22.1,98.6,49.3,98.6z"/>
		<path class="st1" d="M41.8,78.1c0-0.7,0-2.7,0-5.3c-8.4,1.9-10.2-4.2-10.2-4.2c-1.4-3.6-3.4-4.6-3.4-4.6c-2.8-1.9,0.2-1.9,0.2-1.9
			c3,0.2,4.6,3.2,4.6,3.2c2.7,4.8,7.1,3.4,8.8,2.6c0.3-2,1.1-3.4,1.9-4.2C37,63,30,60.4,30,48.5c0-3.4,1.2-6.2,3.1-8.3
			c-0.3-0.8-1.4-4,0.3-8.2c0,0,2.5-0.8,8.3,3.2c2.4-0.7,5-1,7.6-1c2.6,0,5.2,0.4,7.6,1c5.8-4,8.3-3.2,8.3-3.2
			c1.7,4.3,0.6,7.4,0.3,8.2c1.9,2.2,3.1,5,3.1,8.3c0,12-7.1,14.6-13.9,15.4c1.1,1,2.1,2.9,2.1,5.8c0,4.2,0,7.5,0,8.5
			c0,0.8,0.5,1.8,2.1,1.5c12-4.1,20.7-15.8,20.7-29.5C79.7,32.9,66.1,19,49.3,19C32.6,19,19,32.9,19,50.1c0,13.7,8.7,25.4,20.8,29.5
			C41.2,79.9,41.8,78.9,41.8,78.1z"/>
	</g>
</g>
</svg>
