<?xml version="1.0" encoding="utf-8"?>
<!-- Generator: Adobe Illustrator 21.1.0, SVG Export Plug-In . SVG Version: 6.00 Build 0)  -->
<svg version="1.1" id="Слой_1" xmlns="http://www.w3.org/2000/svg" xmlns:xlink="http://www.w3.org/1999/xlink" x="0px" y="0px"
	 viewBox="0 0 1735.4 288.3" style="enable-background:new 0 0 1735.4 288.3;" xml:space="preserve">
<g>
	<path d="M142.9,166.5l-80.3-137c-6.2-11-12.8-18-19.6-20.8C36.1,5.8,21.4,4.4-1.2,4.4v-4h176.3v4c-18.5,0-31.9,1.2-40.4,3.6
		S122,14.6,122,20.5c0,3.3,1.3,7.2,4,11.6l70.6,120l49-82.4c6.6-11.6,9.9-21.9,9.9-30.9c0-23-16.4-34.5-49.1-34.5v-4h119.2v4
		c-19.3,0-35.3,7.6-47.8,22.8c-12.8,21.1-22.8,37.5-29.9,49.1l-50,84.3v98c0,8.7,0.6,14.2,1.8,16.6c0.6,1.2,2.7,2.5,6.2,3.8
		c3.6,1.4,10.4,2.5,20.5,3.4c10.1,0.9,23.7,1.3,40.6,1.3v4.5H73.8v-4.5c17,0,30.5-0.4,40.6-1.3c10.1-0.9,17-2,20.5-3.4
		c3.6-1.3,5.6-2.6,6.2-3.8c1.2-2.4,1.8-7.9,1.8-16.6V166.5z"/>
</g>
<rect x="360" width="10.9" height="284.3"/>
<g>
	<path d="M494.8,96.5v31h-24.4V96.1l-32.9-55h25.8l20.5,34.3l20.5-34.3h23.7L494.8,96.5z"/>
	<path d="M586.5,110.7h-36.5l-6.8,16.8h-24.9l38.1-86.4h24.1l38.3,86.4h-25.4L586.5,110.7z M579.3,92.7L568.2,65l-11.1,27.6H579.3z"
		/>
	<path d="M707.7,41.1v86.4h-20.1l-38.1-46v46h-23.9V41.1h20.1l38.1,46v-46H707.7z"/>
	<path d="M794.2,96.1l-9.1,9.7v21.6h-24.2V41.1h24.2V77l33.4-35.9h26.9l-35.3,38.3l37.1,48.1h-28.4L794.2,96.1z"/>
	<path d="M907.5,110.7H871l-6.8,16.8h-24.9l38.1-86.4h24.1l38.3,86.4h-25.4L907.5,110.7z M900.4,92.7L889.3,65l-11.1,27.6H900.4z"/>
	<path d="M1019.7,108.1v19.4h-77.4v-15.3l43.6-51.7h-42.4V41.1h74.4v15.3l-43.6,51.7H1019.7z"/>
	<path d="M1030.4,41.1h24.4v86.4h-24.4V41.1z"/>
	<path d="M1150.2,127.5l-0.2-45.8l-22.2,37.3h-10.9l-22.1-36v44.5h-22.6V41.1h20.1l30.4,49.9l29.6-49.9h20.1l0.2,86.4H1150.2z"/>
	<path d="M1189.9,41.1h24.4v86.4h-24.4V41.1z"/>
	<path d="M1269.5,104.5h-13.3v23h-24.4V41.1h39.5c23.6,0,38.4,12.2,38.4,32c0,12.7-6.2,22.1-16.9,27.3l18.6,27.1h-26.2L1269.5,104.5
		z M1269.8,60.3h-13.6v25.3h13.6c10.1,0,15.2-4.7,15.2-12.6C1285,65,1279.9,60.3,1269.8,60.3z"/>
	<path d="M1318.6,84.3c0-26.3,20.1-44.9,47.5-44.9c15.9,0,28.8,5.8,37.1,16.3l-15.5,14.1c-5.4-6.5-12.1-10.1-20.4-10.1
		c-14.2,0-24.1,9.9-24.1,24.7c0,14.8,9.9,24.7,24.1,24.7c8.3,0,14.9-3.6,20.4-10.1l15.5,14.1c-8.4,10.5-21.2,16.3-37.1,16.3
		C1338.8,129.2,1318.6,110.6,1318.6,84.3z"/>
	<path d="M1496.3,41.1v86.4h-24.4V93.8h-33.3v33.7h-24.4V41.1h24.4v32.5h33.3V41.1H1496.3z"/>
	<path d="M1513.6,41.1h24.4v86.4h-24.4V41.1z"/>
	<path d="M1551,84.3c0-26.3,20.1-44.9,47.5-44.9c15.9,0,28.8,5.8,37.1,16.3l-15.5,14.1c-5.4-6.5-12.1-10.1-20.4-10.1
		c-14.2,0-24.1,9.9-24.1,24.7c0,14.8,9.9,24.7,24.1,24.7c8.3,0,14.9-3.6,20.4-10.1l15.5,14.1c-8.4,10.5-21.2,16.3-37.1,16.3
		C1571.1,129.2,1551,110.6,1551,84.3z"/>
	<path d="M1679.8,96.1l-9.1,9.7v21.6h-24.2V41.1h24.2V77l33.4-35.9h26.9l-35.3,38.3l37.1,48.1h-28.4L1679.8,96.1z"/>
</g>
<g>
	<path d="M530.6,218.9l-14.5,47.7h-2.9l-22.1-57.9c-1-2.6-2.1-4.2-3.3-4.7c-1.2-0.6-4.2-0.8-9-0.8v-1.5H515v1.5c-2.3,0-4.6,0-7,0.1
		c-2.4,0.1-3.5,0.7-3.5,1.9c0,0.6,0.3,1.6,0.9,3l14.5,39.8l9.8-32.2l-2-7c-0.8-2.6-1.5-4.2-2.2-4.8c-0.7-0.6-2.2-0.8-4.7-0.8h-3.5
		v-1.5h33.4v1.5c-2.3,0-4.6,0-6.9,0.1c-2.3,0.1-3.4,0.7-3.4,1.9c0,0.6,0.2,1.7,0.8,3.2l11.3,38.6l10.2-29.6c1.2-3.5,1.8-6.2,1.8-8.1
		c0-4-3.4-6-10.1-6v-1.5h25.1v1.5c-3.8,0-6.8,0.9-8.9,2.8c-2.1,1.9-4.5,6.5-7.1,13.9l-16,46.7h-2.9L530.6,218.9z"/>
	<path d="M607.7,234.8c0,10.8,1.3,18.6,3.8,23.4c2.6,4.8,6.4,7.3,11.7,7.3c5.5,0,10.4-1.9,14.6-5.6c5.1-4.5,7.7-10.7,7.7-18.5h1.2
		c0,7.5-2.4,13.7-7.2,18.5c-4.8,4.8-11.2,7.2-19.3,7.2c-6.7,0-12.9-2.6-18.4-7.7c-6.5-6-9.8-13.9-9.8-23.6c0-10.5,3.2-19.1,9.6-25.7
		c5.6-5.7,11.9-8.6,19-8.6c6.5,0,11.9,1.9,16.3,5.7c6.3,5.6,9.5,14.8,9.5,27.5H607.7z M633.6,233c0-9.7-0.9-17.1-2.6-22.2
		c-1.7-5.1-4.5-7.7-8.4-7.7c-5.5,0-9.3,2.4-11.5,7.3c-2.2,4.9-3.3,12.4-3.3,22.6H633.6z"/>
	<path d="M672.5,267.1V178c0-2-0.3-3.4-0.9-4.2c-0.6-0.8-1.2-1.3-1.8-1.5c-1.7-0.5-5.6-0.8-11.6-0.8v-1.4l28.5-2.6v53
		c0-4.6,1.5-8.9,4.4-13c3-4,6.4-6.1,10.5-6.1c9,0,16.1,4.1,21.2,12.2c4,6.4,6,13.2,6,20.3c0,9.1-2.6,16.9-7.8,23.4
		c-5.2,6.5-11.1,9.7-17.8,9.7c-6.1,0-10.7-0.8-13.6-2.3c-3-1.5-6.1-4.6-9.4-9.3l-6.5,11.6H672.5z M686.6,243c0,9.5,1.8,16,5.3,19.5
		c2.2,2.2,5.4,3.3,9.6,3.3c4.1,0,7.1-2.9,8.9-8.7c1.8-5.8,2.7-13.4,2.7-22.9c0-11.3-1-19.3-3-24c-2-4.7-4.9-7.1-8.6-7.1
		c-4,0-7.4,2.4-10.1,7.1c-3.2,5.5-4.8,13.2-4.8,23V243z"/>
	<path d="M775.6,229.5v8.3h-30.4v-8.3H775.6z"/>
	<path d="M849,244.9c0,4.9-1.2,9.5-3.6,13.8c-3.1,5.6-7.4,8.4-13,8.4c-7.2,0-13.2-2.8-17.9-8.3c-5.1-6-7.7-14.3-7.7-24.8
		c0-7.2,2.4-14.1,7.1-20.7c5.5-7.8,12.5-11.7,20.9-11.7c4.5,0,8.1,2.5,10.7,7.5c1.8,3.5,3,7.3,3.5,11.5V178c0-2-0.3-3.4-0.9-4.2
		c-0.6-0.8-1.5-1.3-2.6-1.5c-2.5-0.5-8.1-0.8-16.9-0.8v-1.4l34.5-2.6V257c0,2,0.2,3.3,0.5,3.9c0.2,0.3,0.7,0.6,1.4,0.9
		c2.1,0.7,6.2,1.1,12.3,1.1v1.4l-28.3,2.9V244.9z M848.2,233.9c0-10.1-1.2-17.7-3.5-23c-2.3-5.2-5.5-7.9-9.5-7.9
		c-4.8,0-8.2,2.2-10,6.7c-1.9,4.5-2.8,12.6-2.8,24.4c0,10.7,0.6,18.1,1.7,22.4c1.6,6.1,4.9,9.2,9.9,9.2c3.4,0,6.5-2.6,9.2-7.7
		C846.6,251.9,848.2,243.9,848.2,233.9z"/>
	<path d="M907.8,234.8c0,10.8,1.3,18.6,3.8,23.4c2.6,4.8,6.4,7.3,11.7,7.3c5.5,0,10.4-1.9,14.6-5.6c5.1-4.5,7.7-10.7,7.7-18.5h1.2
		c0,7.5-2.4,13.7-7.2,18.5c-4.8,4.8-11.2,7.2-19.3,7.2c-6.7,0-12.9-2.6-18.4-7.7c-6.5-6-9.8-13.9-9.8-23.6c0-10.5,3.2-19.1,9.6-25.7
		c5.6-5.7,11.9-8.6,19-8.6c6.5,0,11.9,1.9,16.3,5.7c6.3,5.6,9.5,14.8,9.5,27.5H907.8z M933.7,233c0-9.7-0.9-17.1-2.6-22.2
		c-1.7-5.1-4.5-7.7-8.4-7.7c-5.5,0-9.3,2.4-11.5,7.3c-2.2,4.9-3.3,12.4-3.3,22.6H933.7z"/>
	<path d="M991.4,266.5l-21.1-57.9c-0.9-2.3-1.5-3.7-1.7-4.1c-0.6-1-2.4-1.5-5.3-1.5h-3.5v-1.5h34.5v1.5c-2.3,0-4.6,0-7,0.1
		c-2.4,0.1-3.5,0.7-3.5,1.9l0.9,3l14.3,38.8l10.1-29.6c1.2-3.5,1.8-6.2,1.8-8.1c0-4-3.4-6-10.1-6v-1.5h25.4v1.5
		c-3.8,0-6.8,0.9-8.9,2.8c-2.1,1.9-4.5,6.5-7.1,13.9l-16,46.7H991.4z"/>
	<path d="M1055.3,234.8c0,10.8,1.3,18.6,3.8,23.4c2.6,4.8,6.4,7.3,11.7,7.3c5.5,0,10.4-1.9,14.6-5.6c5.1-4.5,7.7-10.7,7.7-18.5h1.2
		c0,7.5-2.4,13.7-7.2,18.5s-11.2,7.2-19.3,7.2c-6.7,0-12.9-2.6-18.4-7.7c-6.5-6-9.8-13.9-9.8-23.6c0-10.5,3.2-19.1,9.6-25.7
		c5.6-5.7,11.9-8.6,19-8.6c6.5,0,11.9,1.9,16.3,5.7c6.3,5.6,9.5,14.8,9.5,27.5H1055.3z M1081.2,233c0-9.7-0.9-17.1-2.6-22.2
		c-1.7-5.1-4.5-7.7-8.4-7.7c-5.5,0-9.3,2.4-11.5,7.3c-2.2,4.9-3.3,12.4-3.3,22.6H1081.2z"/>
	<path d="M1139.3,258.5c0,2,0.2,3.3,0.5,3.9c0.2,0.3,0.7,0.6,1.4,0.9c2.1,0.7,6.5,1.1,13.1,1.1v1.4h-44v-1.4c2.9,0,5.5-0.1,7.9-0.3
		c2.4-0.2,4.4-0.6,6.1-1.2c0.6-0.5,0.9-2,0.9-4.4V178c0-2-0.3-3.4-0.9-4.2c-0.6-0.8-1.2-1.3-1.8-1.5c-1.8-0.5-5.8-0.8-12-0.8v-1.4
		l28.9-2.6V258.5z"/>
	<path d="M1231.1,234.2c0,9.7-3.4,17.8-10.1,24.2c-6.1,5.8-13,8.7-20.6,8.7c-7.8,0-14.7-2.7-20.5-8.1c-6.8-6.3-10.2-14.6-10.2-24.8
		c0-9.7,3.4-17.7,10.1-24.1c6.1-5.7,13-8.6,20.6-8.6c7.7,0,14.6,2.7,20.5,8.1C1227.7,215.9,1231.1,224.1,1231.1,234.2z
		 M1215.5,234.2c0-11.1-1-18.9-2.9-23.5c-2.2-5.2-6.3-7.8-12.2-7.8c-5.4,0-9.3,2.5-11.6,7.5c-2.3,5-3.5,12.9-3.5,23.8
		c0,11,1,19,3.1,24.1c2.1,5,6,7.5,12,7.5c5.4,0,9.3-2.6,11.6-7.7C1214.3,253,1215.5,245,1215.5,234.2z"/>
	<path d="M1273.7,223c0.6-5.2,2-9.7,4.2-13.5c3.1-5.3,7.2-7.9,12.3-7.9c7.2,0,13.2,2.8,17.9,8.3c5.1,6,7.7,14.3,7.7,24.8
		c0,7.2-2.4,14.1-7.1,20.7c-5.5,7.8-12.5,11.7-20.9,11.7c-4.4,0-7.9-2.3-10.5-7c-1.8-3.3-3-7.1-3.6-11.4V290c0,2,0.2,3.3,0.5,3.9
		c0.2,0.3,0.7,0.6,1.4,0.9c2.1,0.7,6.5,1.1,13.1,1.1v1.4h-44v-1.4c2.9,0,5.5-0.1,7.9-0.3c2.4-0.2,4.4-0.6,6.1-1.2
		c0.6-0.5,0.9-2,0.9-4.4v-78c0-2-0.3-3.4-0.9-4.2c-0.6-0.8-1.2-1.3-1.8-1.5c-1.8-0.5-5.8-0.8-12-0.8v-1.4l28.9-2.6V223z
		 M1274.6,234.8c0,10.1,1.1,17.7,3.4,23c2.3,5.2,5.4,7.9,9.4,7.9c4.8,0,8.1-2.2,10-6.7c1.8-4.5,2.8-12.6,2.8-24.4
		c0-10.7-0.5-18.1-1.6-22.4c-1.6-6.1-4.9-9.2-9.9-9.2c-3.4,0-6.4,2.6-9.1,7.7C1276.3,216.8,1274.6,224.8,1274.6,234.8z"/>
	<path d="M1348.6,234.8c0,10.8,1.3,18.6,3.8,23.4c2.6,4.8,6.4,7.3,11.7,7.3c5.5,0,10.4-1.9,14.6-5.6c5.1-4.5,7.7-10.7,7.7-18.5h1.2
		c0,7.5-2.4,13.7-7.2,18.5s-11.2,7.2-19.3,7.2c-6.7,0-12.9-2.6-18.4-7.7c-6.5-6-9.8-13.9-9.8-23.6c0-10.5,3.2-19.1,9.6-25.7
		c5.6-5.7,11.9-8.6,19-8.6c6.5,0,11.9,1.9,16.3,5.7c6.3,5.6,9.5,14.8,9.5,27.5H1348.6z M1374.5,233c0-9.7-0.9-17.1-2.6-22.2
		c-1.7-5.1-4.5-7.7-8.4-7.7c-5.5,0-9.3,2.4-11.5,7.3c-2.2,4.9-3.3,12.4-3.3,22.6H1374.5z"/>
	<path d="M1418.4,211.5c0-2-0.2-3.3-0.6-3.8c-0.7-1-1.4-1.6-2-1.8c-1.8-0.5-5.9-0.8-12.3-0.8v-1.4l29.1-2.3v19.1
		c0.4-4.1,1.8-8,4.2-11.6c3.3-5,7.5-7.5,12.5-7.5c1.9,0,4,0.6,6.2,1.9c2.2,1.3,3.7,2.8,4.4,4.7c0.8,1.9,1.1,3.6,1.1,5.1
		c0,4-1.7,6.8-5,8.3c-0.8,0.4-1.9,0.6-3.2,0.6c-2,0-3.8-0.7-5.2-2.1c-1.4-1.4-2.1-3.5-2.1-6.3c0-1.8,0.7-3.6,2.1-5.4
		c1.4-1.8,3-2.5,4.8-2.1c-0.6-2.1-2.4-3.2-5.4-3.2c-2.9,0-5.8,2.1-8.7,6.3c-3.8,5.4-5.7,12.4-5.7,21v28.1c0,2,0.2,3.3,0.5,3.9
		c0.2,0.3,0.7,0.6,1.4,0.9c2.1,0.7,6.5,1.1,13.1,1.1v1.4h-44v-1.4c2.9,0,5.5-0.1,7.9-0.3c2.4-0.2,4.4-0.6,6.1-1.2
		c0.6-0.5,0.9-2,0.9-4.4V211.5z"/>
</g>
</svg>
