<?xml version="1.0" encoding="utf-8"?>
<!-- Generator: Adobe Illustrator 21.1.0, SVG Export Plug-In . SVG Version: 6.00 Build 0)  -->
<svg version="1.1" id="Layer_1" xmlns="http://www.w3.org/2000/svg" xmlns:xlink="http://www.w3.org/1999/xlink" x="0px" y="0px"
	 viewBox="0 0 780 780" style="enable-background:new 0 0 780 780;" xml:space="preserve">
<path d="M522.7,276.3c0.1,36.6-14.1,69.7-39,94.6c-28.2,28.2-46.4,64.7-51.4,104.5h-12.4l31.5-151.8c2.5-13.3-5.8-26.5-19.1-29.9
	c-13.3-2.5-26.5,5.8-29.9,19.1l-14.1,68.1L372.6,312c-3.3-13.3-16.6-21.5-29.9-18.3c-13.3,3.3-21.5,16.6-18.3,29.9l34.8,151h-11.6
	c-5-39-23.3-75.5-51.4-104.5c-12.4-12.5-22.2-27-28.8-42.8c-6.6-15.9-10.1-33.1-10.1-50.9c0-35.6,14.1-68.8,39-93.7
	c24.9-24.9,58.1-39,93.7-39s68.8,14.1,93.7,39C508.6,207.5,522.7,240.7,522.7,276.3z"/>
<path d="M390,0C174.6,0,0,174.6,0,390s174.6,390,390,390s390-174.6,390-390S605.4,0,390,0z M439.8,650.5H336.1
	c-14.1,0-24.9-10.8-24.9-24.9c0-14.1,10.8-24.9,24.9-24.9h103.7c14.1,0,24.9,10.8,24.9,24.9C464.7,639.7,453.8,650.5,439.8,650.5z
	 M460.5,588.3h-141c-14.1,0-24.9-10.8-24.9-24.9c0-14.1,10.8-24.9,24.9-24.9h141.1c14.1,0,24.9,10.8,24.9,24.9
	C485.4,576.7,474.6,588.3,460.5,588.3z M519.4,405.7c-25.8,25.7-39,59-39.8,93.8c0,6.6-2.5,12.4-7.5,17.4c-4.1,5-10.8,7.5-17.4,7.5
	H324.4c-14.1,0-24.9-10.8-24.9-24.9c0-17.8-3.5-35-10.2-50.9c-6.6-15.9-16.4-30.4-28.8-42.8c-34.1-34.8-53.1-80.5-53.1-129.4
	c0-48.9,18.3-94.6,53.1-129.4c34.8-34.1,80.5-53.1,129.4-53.1c48.9,0,94.6,18.2,129.4,53c34.1,34.8,53.1,80.5,53.1,129.4
	C572.5,325.2,554.3,370.9,519.4,405.7z"/>
</svg>
