<?xml version="1.0" encoding="utf-8"?>
<!-- Generator: Adobe Illustrator 21.1.0, SVG Export Plug-In . SVG Version: 6.00 Build 0)  -->
<svg version="1.1" id="Layer_1" xmlns="http://www.w3.org/2000/svg" xmlns:xlink="http://www.w3.org/1999/xlink" x="0px" y="0px"
	 viewBox="0 0 250 250" style="enable-background:new 0 0 250 250;" xml:space="preserve">
<style type="text/css">
	.st0{fill:#FCC12D;}
	.st1{fill:none;stroke:#FFFFFF;stroke-width:10;stroke-linecap:round;stroke-linejoin:round;stroke-miterlimit:10;}
	.st2{fill:#46E6F2;}
	.st3{fill:none;stroke:#231F20;stroke-width:3;stroke-linecap:round;stroke-linejoin:round;stroke-miterlimit:10;}
	.st4{fill:none;stroke:#000000;stroke-width:3;stroke-linecap:round;stroke-linejoin:round;stroke-miterlimit:10;}
	.st5{fill:#FFFFFF;}
	.st6{fill:none;stroke:#FFFFFF;stroke-width:3;stroke-linecap:round;stroke-linejoin:round;stroke-miterlimit:10;}
</style>
<g>
	<circle cx="125.3" cy="124.7" r="124.7"/>
</g>
<path id="XMLID_19_" class="st0" d="M180.8,90.2c0-33.3-28.8-59.9-62.9-56c-25.5,2.9-46.2,23.3-49.5,48.7
	c-2.1,15.8,2.6,30.5,11.4,41.8c10,12.9,15.1,29.2,15.1,45.7v2.3h58.9v-2.3c0-17.1,6.1-33.3,16.1-46.9
	C176.8,114.2,180.8,102.8,180.8,90.2z"/>
<path id="XMLID_15_" class="st1" d="M182.3,87.2c0-34.5-30-62.1-65.5-58.1c-26.6,3-48.1,24.2-51.6,50.5C63.1,96,68,111.2,77.1,122.9
	c10.4,13.4,15.7,30.3,15.7,47.4v2.4h61.4v-2.4c0-17.7,6.4-34.5,16.8-48.6C178.2,112.1,182.3,100,182.3,87.2z"/>
<path id="XMLID_18_" class="st2" d="M152.1,187.9H96.5c-4.1,0-7.6-3.3-7.6-7.6l0,0c0-4.1,3.3-7.6,7.6-7.6h55.6
	c4.1,0,7.6,3.3,7.6,7.6l0,0C159.6,184.5,156.2,187.9,152.1,187.9z"/>
<path id="XMLID_17_" class="st2" d="M147.9,202.8h-47.5c-3.9,0-6.9-3.2-6.9-6.9v-0.8c0-3.9,3.2-6.9,6.9-6.9h47.5
	c3.9,0,6.9,3.2,6.9,6.9v0.8C155,199.6,151.8,202.8,147.9,202.8z"/>
<path id="XMLID_16_" class="st2" d="M104.7,206.4v0.1c0,6.2,5,11.1,11.1,11.1h16.8c6.2,0,11.1-5,11.1-11.1v-0.1
	c0-1.9-1.7-3.6-3.6-3.6h-31.9C106.4,202.8,104.7,204.4,104.7,206.4z"/>
<path id="XMLID_14_" class="st3" d="M149.2,201.1h-47.5c-3.9,0-6.9-3.2-6.9-6.9v-0.8c0-3.9,3.2-6.9,6.9-6.9h47.5
	c3.9,0,6.9,3.2,6.9,6.9v0.8C156.1,198.1,153,201.1,149.2,201.1z"/>
<path id="XMLID_13_" class="st4" d="M104.5,204.7v0.1c0,6.2,5,11.1,11.1,11.1h16.8c6.2,0,11.1-5,11.1-11.1v-0.1
	c0-1.9-1.7-3.6-3.6-3.6H108C106.1,201.1,104.5,202.8,104.5,204.7z"/>
<ellipse id="XMLID_12_" transform="matrix(0.6352 -0.7723 0.7723 0.6352 -16.0491 93.9299)" class="st5" cx="91.4" cy="64" rx="16.2" ry="9.5"/>
<polyline id="XMLID_11_" class="st6" points="139.2,117.3 126.7,168.4 114.3,117.3 "/>
<path id="XMLID_10_" class="st6" d="M104.5,111.1c5.6,0,5.6,4.7,11.1,4.7c5.6,0,5.6-4.7,11.1-4.7c5.6,0,5.6,4.7,11.1,4.7
	c5.6,0,5.6-4.7,11.1-4.7"/>
<path id="XMLID_2_" class="st3" d="M151.8,186.3H96.2c-4.1,0-7.6-3.3-7.6-7.6l0,0c0-4.1,3.3-7.6,7.6-7.6h55.6c4.1,0,7.6,3.3,7.6,7.6
	l0,0C159.4,183,155.9,186.3,151.8,186.3z"/>
</svg>
