<?xml version="1.0" encoding="utf-8"?>
<!-- Generator: Adobe Illustrator 21.1.0, SVG Export Plug-In . SVG Version: 6.00 Build 0)  -->
<svg version="1.1" id="Слой_1" xmlns="http://www.w3.org/2000/svg" xmlns:xlink="http://www.w3.org/1999/xlink" x="0px" y="0px"
	 viewBox="0 0 370.8 288.3" style="enable-background:new 0 0 370.8 288.3;" xml:space="preserve">
<g>
	<path d="M142.9,166.5l-80.3-137c-6.2-11-12.8-18-19.6-20.8C36.1,5.8,21.4,4.4-1.2,4.4v-4h176.3v4c-18.5,0-31.9,1.2-40.4,3.6
		S122,14.6,122,20.5c0,3.3,1.3,7.2,4,11.6l70.6,120l49-82.4c6.6-11.6,9.9-21.9,9.9-30.9c0-23-16.4-34.5-49.1-34.5v-4h119.2v4
		c-19.3,0-35.3,7.6-47.8,22.8C265,48.2,255,64.6,247.9,76.2l-50,84.3v98c0,8.7,0.6,14.2,1.8,16.6c0.6,1.2,2.7,2.5,6.2,3.8
		c3.6,1.4,10.4,2.5,20.5,3.4s23.7,1.3,40.6,1.3v4.5H73.8v-4.5c17,0,30.5-0.4,40.6-1.3s17-2,20.5-3.4c3.6-1.3,5.6-2.6,6.2-3.8
		c1.2-2.4,1.8-7.9,1.8-16.6V166.5z"/>
</g>
<rect x="360" y="0" width="10.9" height="284.3"/>
</svg>
