<?xml version="1.0" encoding="utf-8"?>
<!-- Generator: Adobe Illustrator 21.1.0, SVG Export Plug-In . SVG Version: 6.00 Build 0)  -->
<svg version="1.1" id="Layer_1" xmlns="http://www.w3.org/2000/svg" xmlns:xlink="http://www.w3.org/1999/xlink" x="0px" y="0px"
	 viewBox="0 0 101 101" style="enable-background:new 0 0 101 101;" xml:space="preserve">
<style type="text/css">
	.st0{display:none;}
	.st1{fill:#F15A22;}
	.st2{fill:#FDB913;}
	.st3{fill:#FFFFFF;}
</style>
<circle class="st0" cx="50.5" cy="50.5" r="50.5"/>
<title></title>
<g>
	<circle cx="50.5" cy="50.6" r="49.7"/>
	<g id="fill">
		<path class="st1" d="M57.7,12.7c-0.3-0.1-0.5-0.2-0.8-0.3c-1.7-0.6-3.4-0.8-5-1c-1.7-0.2-3.3-0.2-4.9-0.2c-1,0-2,0.1-3,0.2
			c-1,0.1-2.1,0.5-2.9,1.3c-0.2,0.1-0.3,0.3-0.4,0.5c-0.5,0.5-0.9,1.3-1,2.1C39.4,16,39.6,17,40,17.8c0.8,2,1.9,3.9,3.3,5.6
			c0.7,0.8,1.3,1.5,2.2,2.2c-2,7.1-3.7,14.3-5.1,21.6c-0.2,0.9-0.4,1.8-0.5,2.7c-0.1,0.3,0.4,0.1,0.4,0.4c0.5-0.1-0.2,0.7-0.2,0.8
			c-0.4,0.1-0.1,2.7-1.7,0.5l0,0.2c-0.1,0.1-0.1,0.1-0.1,0.2c0,0.4-0.2,0.3-0.3,0.7c-0.1,0.7-0.2,1.4-0.3,2.1c0,0.2,0,0.4-0.1,0.5
			c0,0.1,0.1,0.2,0.2,0.2c0.2,0.3,0.5,0.4,0.7,0.6c0.1,0.1,0.3,0.1,0.4,0.2c-0.7,4.7-1,9.5-0.8,14.4c1,3.2,2.6,6.4,4.2,9.5
			c0.6,2,1.6,3.9,3,5.6c0,0.2,0.1,0.3,0.2,0.4c0.8,1.7,2.6,1.8,3.9,1c2.8-0.7,5.6-3.7,7-5.3c1.3-1.5,2.2-2.8,2.6-4.2
			c0.2-0.6,0.3-1.1,0.4-1.7c0.2-1.5-0.1-3.1-0.5-5c0.3-0.5,0.4-1.1,0.3-1.7c-1.1-4.9-2.1-9.7-3-14.6c-0.5-4.1-1-8.3-1.4-12.4
			c1.1,1.9,2.5,3.8,4.1,5.5c4.5,4.8,10.6,7.7,17.4,7.1c0.8,0,1.5-0.5,1.9-1.2c0.4-0.1,0.7-0.1,1-0.3c1.9-0.6,1.9-2.5,0.9-3.8
			c0,0-0.1,0-0.1,0c-2,0.5-4.1,0.5-6.1-0.1c-2.1-0.5-4.1-1.5-5.9-2.7c-2-1.4-3.8-3.2-5.3-5c-1.3-1.5-2.5-3.2-3.6-4.9
			c-2.3-3.5-4.4-7.1-5.5-11c0-0.1,0-0.1,0-0.2c0.5-0.4,0.9-0.8,1.2-1.3c0.1-0.1,0.1-0.2,0.2-0.2c-0.2-0.2-0.4-0.3-0.6-0.4
			c1.6-1.3,3.4-2.7,3.9-4.9c0.1-0.5,0.2-1,0.1-1.5c0.2-0.3,0.3-0.7,0.3-1c0.2-1.3,0-2.4-0.5-3.3C57.9,12.9,57.8,12.8,57.7,12.7z
			 M48.6,51.7c1.4,0.2,2.3,1.7,1.8,3c-0.4,1.1-1.6,1.9-2.7,1.8c0.1,0,0.5-0.1,0.6-0.1c0.5-0.1,1-0.3,1.3-0.6l0.2-0.1
			c0.4-0.4,0.7-0.9,0.9-1.3c0-0.3,0.1-0.6,0-0.8c-0.1-0.3-0.2-0.7-0.4-0.9l-0.1-0.1c-0.3-0.4-0.7-0.6-1.2-0.7
			c-0.3-0.1-0.7-0.2-1-0.2l-6.5-0.8c0-0.3,0,0.3,0,0C44,51.1,45.8,51.3,48.6,51.7z"/>
		<path class="st2" d="M49.1,52.6l0.3,0.4c0.2,0.2,0.7,0.5,0.8,0.8c0,0.2-0.5,0.3-0.6,0.6c-0.1,0.5-0.2-0.5-0.6-0.1l0.3,1
			c-0.4,0.3-0.3,0.5-0.8,0.6c-0.1,0,0.2-0.3,0.2-0.3l-0.5,0.3c-0.2,0,0.1,0.8-0.1,0.7c-2.8-0.7-5.7-1.2-8.6-1.3
			c-0.5,0-0.9-0.2-1.2-0.4c-0.2-0.1-0.3-0.2-0.4-0.3c0-0.1,0-0.1,0-0.2c-0.1-0.5,0-1,0.2-1.5c0.1-0.4,0.3-0.8,0.6-1.1
			c0.1-0.1,0.1-0.1,0.2-0.2l0.2-0.1c0.4-0.3,0.8-0.4,1.3-0.4c0.1,0,0.1,0,0.2,0c0-0.3,0.8,0.2,0.8,0c0.6,0,0.4,0.1,1,0.2
			c0,0.3,0-0.3,0,0l3.5,0.9c0.3,0.1,1.3,0.1,1.6,0.2C47.7,52.4,48.8,52.3,49.1,52.6z"/>
	</g>
	<g id="line_copy">
		<path class="st3" d="M58,13.1c-0.1-0.1-0.3-0.2-0.4-0.2c-0.3-0.1-0.5-0.2-0.8-0.3c-1.7-0.6-3.4-0.8-5-1c-1.7-0.2-3.3-0.2-4.9-0.2
			c-1,0-2,0.1-3,0.2c-1,0.1-2.1,0.5-2.9,1.3c-0.2,0.1-0.3,0.3-0.4,0.5c-0.5,0.5-0.9,1.3-1,2.1c-0.1,0.9,0.1,1.8,0.5,2.7
			c0.8,2,1.9,3.9,3.3,5.6c0.7,0.8,1.3,1.5,2.2,2.2c-2,7.1-3.7,14.3-5.1,21.6c-0.2,0.9-0.4,1.8-0.5,2.7c-0.1,0.3-0.1,0.6-0.1,0.8
			c-0.1,0-0.1,0-0.2,0c-0.4,0-0.9,0.2-1.3,0.4l-0.2,0.1c-0.1,0.1-0.1,0.1-0.2,0.2c-0.3,0.3-0.5,0.7-0.6,1.1c-0.1,0.5-0.2,1-0.2,1.5
			c0,0.1,0,0.1,0,0.2c0,0.3,0.2,0.6,0.3,0.9c0,0.1,0.1,0.2,0.2,0.2c0.2,0.3,0.5,0.4,0.7,0.6c0.1,0.1,0.3,0.1,0.4,0.2
			c-0.7,4.7-1,9.5-0.8,14.4c0,0.2,0,0.5,0,0.7c0.1,1.5,0.3,3,0.7,4.4c0.4,1.3,1,2.5,1.7,3.6c1.9,3.4,3.9,6.7,6.1,9.9
			c0.3,0.5,0.9,0.6,1.3,0.3c2-1.3,3.9-2.7,5.8-4.3c2.2-1.8,4.2-3.7,6.1-5.8c0.2-0.3,0.5-0.6,0.7-0.9c0.2-0.4,0.5-0.7,0.6-1.2
			c0.1-0.4,0.2-0.9,0.1-1.4c-0.1-0.4-0.1-0.7-0.1-1.1c-1.6-9.2-3.1-18.3-4.6-27.4l0.5,0.6c4.2,5.1,10.4,8.2,16.9,8.4
			c1,0,2.1-0.1,3-0.5c0.4-0.2,0.8-0.4,1.2-0.7c0.7-0.6,1.3-1.4,1.7-2.2c0.4-0.8,0.7-1.6,1-2.5c0.2-0.5-0.1-1.1-0.6-1.2
			c-0.1-0.1-0.3,0-0.5-0.1c0,0-0.1,0-0.1,0c-2,0.5-4.1,0.5-6.1-0.1c-2.1-0.5-4.1-1.5-5.9-2.7c-2-1.4-3.8-3.2-5.3-5
			c-1.3-1.5-2.5-3.2-3.6-4.9c-2.3-3.5-4.4-7.1-5.5-11c0-0.1,0-0.1,0-0.2c0.5-0.4,0.9-0.8,1.2-1.3c0.1-0.1,0.1-0.2,0.2-0.2
			c0.8-1,1.5-1.9,2.2-2.9c0.6-0.7,1.1-1.5,1.5-2.4c0.4-0.9,0.7-1.9,0.8-2.9c0-0.4,0-0.8-0.1-1.2c-0.1-0.5-0.3-0.8-0.6-1.2l0-0.1
			C58.4,13.4,58.2,13.2,58,13.1z M39.3,52.9c0.1,0,0.2-0.1,0.3-0.1c0.2,0,0.4,0,0.6,0c2.5,0.3,5.1,0.6,7.6,0.9
			c0.2,0,0.4,0.1,0.6,0.1c0.1,0,0.1,0.1,0.2,0.1c0,0.1,0,0.2,0,0.2c0,0.1-0.1,0.2-0.2,0.2l-0.1,0c-0.2,0.1-0.4,0.2-0.6,0.2
			c-0.3,0.1-0.6,0.1-0.9,0.1c-2,0.1-4,0.1-6-0.2c-0.3,0-0.8,0-1.3-0.1c-0.1-0.1-0.2-0.1-0.4-0.1c0-0.1-0.1-0.1-0.2-0.1
			c0-0.1-0.1-0.1-0.1-0.2c0-0.2,0-0.5,0.1-0.7C39.1,53.2,39.2,53,39.3,52.9z M73.2,51.4c1.7,0.5,3.5,0.6,5.3,0.4
			c-0.1,0.1-0.1,0.4-0.3,0.6C77.9,53,77.5,53.5,77,54c-0.2,0.2-0.5,0.3-0.7,0.4c-0.7,0.2-1.5,0.4-2.2,0.3
			c-5.9-0.1-11.7-3.1-15.5-7.7c-1.1-1.3-2-2.7-2.7-4.2l-0.2-0.2c-0.6-3.5-1.2-7-1.8-10.4c1,2,2.1,3.9,3.4,5.7
			c1.2,1.7,2.4,3.4,3.7,5.1c1.7,2,3.6,3.9,5.7,5.4C68.7,49.8,70.8,50.8,73.2,51.4z M59.2,75.3c0,0.2,0.1,0.4,0.1,0.6
			c0,0.1,0,0.2,0.1,0.4c0,0.2,0,0.4-0.1,0.7c-0.1,0.2-0.2,0.4-0.3,0.6c0,0,0,0-0.1,0.1c-0.2,0.2-0.3,0.4-0.6,0.6
			c-1.9,2-3.8,3.9-5.9,5.6c-1.5,1.3-3.1,2.5-4.8,3.6c-1.9-2.9-3.7-6-5.5-9c-0.6-1-1.1-2.1-1.6-3.3c-0.4-1.3-0.6-2.6-0.7-4
			c-0.3-4.9-0.1-9.8,0.7-14.6l0.1,0c2.1,0.2,4.2,0.2,6.2,0.1c0.4,0,0.7,0,1-0.1l0,0c0.1,0,0.2,0,0.2,0c0.5-0.1,1-0.3,1.3-0.6
			l0.2-0.1c0.4-0.4,0.7-0.9,0.9-1.3c0-0.3,0.1-0.6,0-0.8c-0.1-0.3-0.2-0.7-0.4-0.9l-0.1-0.1c-0.3-0.4-0.7-0.6-1.2-0.7
			c-0.3-0.1-0.7-0.2-1-0.2L41.5,51c0-0.3,0.1-0.5,0.1-0.8c0.2-0.9,0.3-1.7,0.5-2.6c1.4-7.1,3-14,4.8-20.9c0.2,0.1,0.5,0.2,0.7,0.3
			c0.9,0.3,1.9,0.4,2.8,0.2c0.2,0,0.4-0.1,0.5-0.1C53.8,43.2,56.5,59.3,59.2,75.3z M53.2,23.3c-0.3,0.4-0.7,0.7-1.1,1.1
			c-1.3,1.2-3.2,1.3-4.7,0.4c-1.1-0.6-2-1.5-2.8-2.5c-1.2-1.5-2.2-3.2-2.9-5.1c-0.2-0.5-0.4-1.1-0.3-1.7c0-0.4,0.3-0.8,0.5-1
			l0.3-0.2c0.6-0.5,1.3-0.7,2-0.8c0.9-0.1,1.8-0.1,2.7-0.1c3.2,0.1,6.4,0.2,9.4,1.1c0.2,0,0.4,0.1,0.5,0.2c0.1,0.1,0.2,0.2,0.3,0.2
			l0,0.1c0.1,0.1,0.2,0.3,0.2,0.5c0.1,0.2,0.1,0.5,0.1,0.6c0,0.7-0.2,1.5-0.6,2.1c-0.4,0.8-0.8,1.4-1.3,2.1
			C54.8,21.3,54,22.3,53.2,23.3z"/>
	</g>
</g>
</svg>
