<?xml version="1.0" encoding="utf-8"?>
<!-- Generator: Adobe Illustrator 21.1.0, SVG Export Plug-In . SVG Version: 6.00 Build 0)  -->
<svg version="1.1" id="Слой_1" xmlns:sketch="http://www.bohemiancoding.com/sketch/ns"
	 xmlns="http://www.w3.org/2000/svg" xmlns:xlink="http://www.w3.org/1999/xlink" x="0px" y="0px" viewBox="0 0 23.8 23.8"
	 style="enable-background:new 0 0 23.8 23.8;" xml:space="preserve">
<path d="M11.9,0.1C5.4,0.1,0.1,5.4,0.1,11.9c0,6.5,5.3,11.8,11.8,11.8c6.5,0,11.8-5.3,11.8-11.8C23.8,5.4,18.5,0.1,11.9,0.1z
	 M11.5,21.4l-4.7-3L10,6.6L7.8,3.8C7.2,3.1,7.5,2.5,8.5,2.5h6c1,0,1.2,0.6,0.6,1.3L13,6.6l3.3,11.8L11.5,21.4z M16.9,13.2L16,14.5
	l-2.4-7.7l3.3,5.5C17.1,12.6,17.1,13,16.9,13.2z"/>

</svg>
